<svg xmlns="http://www.w3.org/2000/svg" version="1.1" xmlns:xlink="http://www.w3.org/1999/xlink" xmlns:svgjs="http://svgjs.com/svgjs" width="512" height="512" x="0" y="0" viewBox="0 0 224.169 277.318" style="enable-background:new 0 0 512 512" xml:space="preserve" class=""><g><path d="M219.296 69.701a8 8 0 0 0 4.233-10.492 7.998 7.998 0 0 0-10.491-4.233l-84.592 35.955H96.313c-.755 2.819-1.814 5.544-2.869 8.236-3.351 8.555-6.516 16.636 1.815 26.354 8.567 9.994 9.812 18.196 8.948 23.873.166.564.26 1.16.26 1.777v25c0 3.474-2.826 6.3-6.3 6.3H82.848l-4.736 81.768c-.395 6.819 4.813 12.663 11.628 13.058 6.817.395 12.664-4.809 13.059-11.628l5.265-90.889h5.796l5.265 90.889c.395 6.819 6.243 12.022 13.059 11.628 6.815-.395 12.023-6.239 11.628-13.058l-5.803-100.189v-59.799zm-103.068 43.987h13.667v4.333h-13.667z" fill="#000000" data-original="#000000" class=""></path><path d="M35.056 52.698a7.95 7.95 0 0 0-4.388.952 8 8 0 0 0-3.189 10.855l2.646 4.848-3.172 10.711 2.637.781 2.394-8.085 21.329 39.079a8 8 0 0 0 10.187 3.515c5.218-2.247 13.673-5.407 20.418-7.125v36.644h14.25c1.693 0 3.23.675 4.363 1.766.067-4.997-1.836-11.703-8.789-19.815-9.112-10.631-5.577-19.657-2.159-28.386.963-2.459 1.933-4.946 2.649-7.506h-2.586c-.387 0-.764.038-1.135.093-7.822.273-19.264 4.128-26.562 6.905L41.522 56.839a7.953 7.953 0 0 0-3.795-3.479L53.298.78 50.662 0l-.585 1.977C46.263 2.482 17.036 6.67 0 18.339c26.613-.959 32.075 11.027 41.739 11.791z" fill="#000000" data-original="#000000" class=""></path><path d="M112.523 88.631c1.812 0 3.633-.193 5.424-.555.43.53 1.156.777 1.844.558l5.083-1.616.953-.303a1.69 1.69 0 0 0 .634-.374 1.713 1.713 0 0 0 .477-1.772 1.708 1.708 0 0 0-1.163-1.123 1.69 1.69 0 0 0-.983.013l-6.036 1.919c-.552.175-.951.61-1.112 1.127a25.815 25.815 0 0 1-5.121.526c-8.169 0-15.692-3.976-20.454-10.228a25.433 25.433 0 0 1-4.602-9.851l-.012-.059c.188.002.379.002.569.003-.507-7.309 10.338-13.084 21.809-15.658s23.744-1.984 26.407 4.84c8.779-4.173 14.001-8.783 13.175-12.465-.972-4.334-10.066-6.255-22.67-5.474-4.961-9.062-13.924-14.329-22.628-12.376S89.558 36.306 88.944 46.619c-11.729 4.679-19.13 10.3-18.158 14.634.762 3.396 6.514 5.309 15.03 5.603a10 10 0 0 0 .089.445c1.366 6.084 4.778 11.339 9.395 15.115a27.787 27.787 0 0 0 2.056 1.54c4.391 2.961 9.64 4.675 15.167 4.675z" fill="#000000" data-original="#000000" class=""></path><path d="M90.423 67.502c2.72 12.125 14.755 19.749 26.88 17.029 12.126-2.721 19.749-14.755 17.029-26.88-2.721-12.126-46.629-2.275-43.909 9.851zm15.297 3.867s14.027 1.53 22.22-4.627c0 0-7.429 19.158-22.22 4.627zM98.167 147.172h-17c-2.2 0-4 1.8-4 4v25c0 2.2 1.8 4 4 4h17c2.2 0 4-1.8 4-4v-25c0-2.2-1.8-4-4-4zm-6.49 28.435v-2.862h2.493v1.789a8.58 8.58 0 0 1-2.493 1.073zm-4.243-2.862v2.862a8.58 8.58 0 0 1-2.493-1.073v-1.789zm-2.493-.875v-2.493h2.493v2.493zm-4.01-4.615c0-.424.041-.838.1-1.247h3.035v2.493h-3.035a8.655 8.655 0 0 1-.1-1.246zm6.503-4.614v2.493h-2.493v-2.493zm-2.493-.875v-1.789a8.58 8.58 0 0 1 2.493-1.073v2.862zm9.229.875v2.493h-2.493v-2.493zm-2.493-.875v-2.862a8.58 8.58 0 0 1 2.493 1.073v1.789zm-3.368 4.243h2.493v2.493h-2.493zm-.875 2.493h-2.493v-2.493h2.493zm4.243-2.493h2.493v2.493h-2.493zm-.875-.875h-2.493v-2.493h2.493zm-6.736 0h-2.862a8.58 8.58 0 0 1 1.073-2.493h1.789zm0 4.243v2.493h-1.789a8.58 8.58 0 0 1-1.073-2.493zm4.243 0h2.493v2.493h-2.493zm3.368 0h2.493v2.493h-2.493zm3.368 3.368h1.163c-.35.423-.739.813-1.163 1.163zm1.789-.875h-1.789v-2.493h2.862a8.58 8.58 0 0 1-1.073 2.493zm1.347-4.615c0 .424-.041.838-.1 1.247h-3.035v-2.493h3.035c.059.408.1.822.1 1.246zm-.274-2.121h-2.862v-2.493h1.789a8.58 8.58 0 0 1 1.073 2.493zm-1.699-3.368h-1.163v-1.163c.424.35.813.739 1.163 1.163zm-5.406-3.035v3.035h-2.493v-3.035c.408-.059.822-.1 1.247-.1s.838.04 1.246.1zm-6.736 1.872v1.163h-1.163c.35-.424.739-.813 1.163-1.163zm-1.163 12.142h1.163v1.163a8.694 8.694 0 0 1-1.163-1.163zm5.406 3.035v-3.035h2.493v3.035c-.408.059-.822.1-1.247.1s-.838-.041-1.246-.1z" fill="#000000" data-original="#000000" class=""></path></g></svg>