<svg width="211" height="238" viewBox="0 0 211 238" fill="none" xmlns="http://www.w3.org/2000/svg">
<mask id="path-1-inside-1_74_38" fill="white">
<path fill-rule="evenodd" clip-rule="evenodd" d="M187.101 106.919C179.201 112.632 169.494 116 159 116C150.147 116 141.853 113.603 134.733 109.423C134.645 109.34 134.555 109.259 134.464 109.178C133.238 108.092 131.522 106.945 129.278 105.694C118.145 96.9034 111 83.2862 111 68C111 41.4903 132.49 20 159 20C185.51 20 207 41.4903 207 68C207 83.5581 199.598 97.3874 188.124 106.158C187.785 106.393 187.442 106.647 187.101 106.919ZM182.499 114.4C175.441 117.981 167.456 120 159 120C151.137 120 143.682 118.255 137 115.131L137 115.963L137 120.368C137.204 121.804 137.769 122.499 138.294 122.877C138.894 123.309 139.691 123.5 140.5 123.5H140.558H140.616H140.674H140.733H140.791H140.85H140.91H140.969H141.029H141.089H141.149H141.21H141.27H141.331H141.393H141.454H141.516H141.578H141.64H141.702H141.765H141.828H141.891H141.954H142.018H142.081H142.145H142.21H142.274H142.339H142.404H142.469H142.534H142.6H142.666H142.732H142.798H142.864H142.931H142.998H143.065H143.132H143.199H143.267H143.335H143.403H143.471H143.54H143.608H143.677H143.746H143.816H143.885H143.955H144.025H144.095H144.165H144.235H144.306H144.377H144.448H144.519H144.59H144.662H144.734H144.806H144.878H144.95H145.022H145.095H145.168H145.241H145.314H145.387H145.46H145.534H145.608H145.682H145.756H145.83H145.905H145.979H146.054H146.129H146.204H146.279H146.355H146.43H146.506H146.582H146.658H146.734H146.81H146.887H146.963H147.04H147.117H147.194H147.271H147.348H147.426H147.503H147.581H147.659H147.737H147.815H147.893H147.972H148.05H148.129H148.207H148.286H148.365H148.444H148.524H148.603H148.682H148.762H148.842H148.922H149.001H149.081H149.162H149.242H149.322H149.403H149.483H149.564H149.645H149.726H149.807H149.888H149.969H150.05H150.132H150.213H150.295H150.377H150.458H150.54H150.622H150.704H150.786H150.869H150.951H151.033H151.116H151.198H151.281H151.364H151.446H151.529H151.612H151.695H151.778H151.862H151.945H152.028H152.112H152.195H152.278H152.362H152.446H152.529H152.613H152.697H152.781H152.865H152.949H153.033H153.117H153.201H153.285H153.37H153.454H153.538H153.623H153.707H153.792H153.876H153.961H154.045H154.13H154.215H154.299H154.384H154.469H154.554H154.639H154.724H154.809H154.894H154.979H155.064H155.149H155.234H155.319H155.404H155.489H155.574H155.659H155.745H155.83H155.915H156H156.086H156.171H156.256H156.341H156.427H156.512H156.597H156.683H156.768H156.853H156.938H157.024H157.109H157.194H157.28H157.365H157.45H157.536H157.621H157.706H157.791H157.877H157.962H158.047H158.132H158.217H158.302H158.388H158.473H158.558H158.643H158.728H158.813H158.898H158.983H159.068H159.153H159.238H159.322H159.407H159.492H159.577H159.661H159.746H159.831H159.915H160H160.084H160.169H160.253H160.338H160.422H160.506H160.59H160.674H160.759H160.843H160.927H161.01H161.094H161.178H161.262H161.346H161.429H161.513H161.596H161.68H161.763H161.846H161.93H162.013H162.096H162.179H162.262H162.345H162.427H162.51H162.593H162.675H162.758H162.84H162.922H163.005H163.087H163.169H163.251H163.333H163.414H163.496H163.578H163.659H163.74H163.822H163.903H163.984H164.065H164.146H164.227H164.307H164.388H164.468H164.549H164.629H164.709H164.789H164.869H164.949H165.029H165.108H165.188H165.267H165.346H165.425H165.504H165.583H165.662H165.74H165.819H165.897H165.975H166.053H166.131H166.209H166.287H166.364H166.442H166.519H166.596H166.673H166.75H166.827H166.903H166.98H167.056H167.132H167.208H167.284H167.36H167.435H167.51H167.586H167.661H167.736H167.81H167.885H167.959H168.034H168.108H168.182H168.255H168.329H168.402H168.476H168.549H168.622H168.694H168.767H168.839H168.912H168.984H169.056H169.127H169.199H169.27H169.341H169.412H169.483H169.553H169.624H169.694H169.764H169.834H169.904H169.973H170.042H170.111H170.18H170.249H170.317H170.385H170.453H170.521H170.589H170.656H170.724H170.791H170.857H170.924H170.99H171.057H171.123H171.188H171.254H171.319H171.384H171.449H171.514H171.578H171.642H171.706H171.77H171.834H171.897H171.96H172.023H172.085H172.148H172.21H172.272H172.333H172.395H172.456H172.517H172.578H172.638H172.698H172.758H172.818H172.877H172.937H172.996H173.054H173.113H173.171H173.229H173.287H173.344H173.401H173.458H173.515H173.571H173.627H173.683H173.739H173.794H173.849H173.904H173.959H174.013H174.067H174.121H174.174H174.227H174.28H174.333H174.385H174.437H174.489H174.54H174.591H174.642H174.693H174.743H174.793H174.843H174.893H174.942H174.991H175.039H175.087H175.135H175.183H175.231H175.278H175.324H175.371H175.417H175.463H175.508H175.554H175.599H175.643H175.688H175.732H175.775H175.819H175.862H175.904H175.947H175.989H176.031H176.072H176.113H176.154H176.195H176.235H176.275H176.314H176.353H176.392H176.431H176.469H176.506H176.544H176.581H176.618H176.654H176.69H176.726H176.762H176.797H176.832H176.866H176.9H176.934H176.967H177C178.548 123.5 179.566 123.249 180.241 122.917C180.884 122.6 181.31 122.166 181.624 121.596C182.33 120.316 182.497 118.366 182.5 115.583C182.468 115.179 182.469 114.785 182.499 114.4ZM127.06 109.038C128.723 110.334 130.467 111.531 132.283 112.621C132.826 113.182 132.966 113.519 133 113.649L133 115.962L133 120.5V120.625L133.015 120.748C133.326 123.234 134.412 125.011 135.956 126.123C137.44 127.191 139.142 127.5 140.5 127.5H140.558H140.616H140.674H140.733H140.791H140.85H140.91H140.969H141.029H141.089H141.149H141.21H141.27H141.331H141.393H141.454H141.516H141.578H141.64H141.702H141.765H141.828H141.891H141.954H142.018H142.081H142.145H142.21H142.274H142.339H142.404H142.469H142.534H142.6H142.666H142.732H142.798H142.864H142.931H142.998H143.065H143.132H143.199H143.267H143.335H143.403H143.471H143.54H143.608H143.677H143.746H143.816H143.885H143.955H144.025H144.095H144.165H144.235H144.306H144.377H144.448H144.519H144.59H144.662H144.734H144.806H144.878H144.95H145.022H145.095H145.168H145.241H145.314H145.387H145.46H145.534H145.608H145.682H145.756H145.83H145.905H145.979H146.054H146.129H146.204H146.279H146.355H146.43H146.506H146.582H146.658H146.734H146.81H146.887H146.963H147.04H147.117H147.194H147.271H147.348H147.426H147.503H147.581H147.659H147.737H147.815H147.893H147.972H148.05H148.129H148.207H148.286H148.365H148.444H148.524H148.603H148.682H148.762H148.842H148.922H149.001H149.081H149.162H149.242H149.322H149.403H149.483H149.564H149.645H149.726H149.807H149.888H149.969H150.05H150.132H150.213H150.295H150.377H150.458H150.54H150.622H150.704H150.786H150.869H150.951H151.033H151.116H151.198H151.281H151.364H151.446H151.529H151.612H151.695H151.778H151.862H151.945H152.028H152.112H152.195H152.278H152.362H152.446H152.529H152.613H152.697H152.781H152.865H152.949H153.033H153.117H153.201H153.285H153.37H153.454H153.538H153.623H153.707H153.792H153.876H153.961H154.045H154.13H154.215H154.299H154.384H154.469H154.554H154.639H154.724H154.809H154.894H154.979H155.064H155.149H155.234H155.319H155.404H155.489H155.574H155.659H155.745H155.83H155.915H156H156.086H156.171H156.256H156.341H156.427H156.512H156.597H156.683H156.768H156.853H156.938H157.024H157.109H157.194H157.28H157.365H157.45H157.536H157.621H157.706H157.791H157.877H157.962H158.047H158.132H158.217H158.302H158.388H158.473H158.558H158.643H158.728H158.813H158.898H158.983H159.068H159.153H159.238H159.322H159.407H159.492H159.577H159.661H159.746H159.831H159.915H160H160.084H160.169H160.253H160.338H160.422H160.506H160.59H160.674H160.759H160.843H160.927H161.01H161.094H161.178H161.262H161.346H161.429H161.513H161.596H161.68H161.763H161.846H161.93H162.013H162.096H162.179H162.262H162.345H162.427H162.51H162.593H162.675H162.758H162.84H162.922H163.005H163.087H163.169H163.251H163.333H163.414H163.496H163.578H163.659H163.74H163.822H163.903H163.984H164.065H164.146H164.227H164.307H164.388H164.468H164.549H164.629H164.709H164.789H164.869H164.949H165.029H165.108H165.188H165.267H165.346H165.425H165.504H165.583H165.662H165.74H165.819H165.897H165.975H166.053H166.131H166.209H166.287H166.364H166.442H166.519H166.596H166.673H166.75H166.827H166.903H166.98H167.056H167.132H167.208H167.284H167.36H167.435H167.51H167.586H167.661H167.736H167.81H167.885H167.959H168.034H168.108H168.182H168.255H168.329H168.402H168.476H168.549H168.622H168.694H168.767H168.839H168.912H168.984H169.056H169.127H169.199H169.27H169.341H169.412H169.483H169.553H169.624H169.694H169.764H169.834H169.904H169.973H170.042H170.111H170.18H170.249H170.317H170.385H170.453H170.521H170.589H170.656H170.724H170.791H170.857H170.924H170.99H171.057H171.123H171.188H171.254H171.319H171.384H171.449H171.514H171.578H171.642H171.706H171.77H171.834H171.897H171.96H172.023H172.085H172.148H172.21H172.272H172.333H172.395H172.456H172.517H172.578H172.638H172.698H172.758H172.818H172.877H172.937H172.996H173.054H173.113H173.171H173.229H173.287H173.344H173.401H173.458H173.515H173.571H173.627H173.683H173.739H173.794H173.849H173.904H173.959H174.013H174.067H174.121H174.174H174.227H174.28H174.333H174.385H174.437H174.489H174.54H174.591H174.642H174.693H174.743H174.793H174.843H174.893H174.942H174.991H175.039H175.087H175.135H175.183H175.231H175.278H175.324H175.371H175.417H175.463H175.508H175.554H175.599H175.643H175.688H175.732H175.775H175.819H175.862H175.904H175.947H175.989H176.031H176.072H176.113H176.154H176.195H176.235H176.275H176.314H176.353H176.392H176.431H176.469H176.506H176.544H176.581H176.618H176.654H176.69H176.726H176.762H176.797H176.832H176.866H176.9H176.934H176.967H177C178.952 127.5 180.622 127.188 182.009 126.505C183.428 125.806 184.44 124.772 185.126 123.529C186.413 121.196 186.5 118.173 186.5 115.5V115.409L186.492 115.319C186.367 113.944 187.056 112.53 188.357 111.17C188.725 110.787 189.12 110.43 189.523 110.104C189.844 109.871 190.161 109.635 190.476 109.395C191.162 108.926 191.821 108.557 192.346 108.312L192.208 108.017C203.689 98.4788 211 84.0931 211 68C211 39.2812 187.719 16 159 16C130.281 16 107 39.2812 107 68C107 84.4669 114.654 99.1461 126.599 108.674L126.552 108.761C126.725 108.854 126.895 108.946 127.06 109.038Z"/>
</mask>
<path fill-rule="evenodd" clip-rule="evenodd" d="M187.101 106.919C179.201 112.632 169.494 116 159 116C150.147 116 141.853 113.603 134.733 109.423C134.645 109.34 134.555 109.259 134.464 109.178C133.238 108.092 131.522 106.945 129.278 105.694C118.145 96.9034 111 83.2862 111 68C111 41.4903 132.49 20 159 20C185.51 20 207 41.4903 207 68C207 83.5581 199.598 97.3874 188.124 106.158C187.785 106.393 187.442 106.647 187.101 106.919ZM182.499 114.4C175.441 117.981 167.456 120 159 120C151.137 120 143.682 118.255 137 115.131L137 115.963L137 120.368C137.204 121.804 137.769 122.499 138.294 122.877C138.894 123.309 139.691 123.5 140.5 123.5H140.558H140.616H140.674H140.733H140.791H140.85H140.91H140.969H141.029H141.089H141.149H141.21H141.27H141.331H141.393H141.454H141.516H141.578H141.64H141.702H141.765H141.828H141.891H141.954H142.018H142.081H142.145H142.21H142.274H142.339H142.404H142.469H142.534H142.6H142.666H142.732H142.798H142.864H142.931H142.998H143.065H143.132H143.199H143.267H143.335H143.403H143.471H143.54H143.608H143.677H143.746H143.816H143.885H143.955H144.025H144.095H144.165H144.235H144.306H144.377H144.448H144.519H144.59H144.662H144.734H144.806H144.878H144.95H145.022H145.095H145.168H145.241H145.314H145.387H145.46H145.534H145.608H145.682H145.756H145.83H145.905H145.979H146.054H146.129H146.204H146.279H146.355H146.43H146.506H146.582H146.658H146.734H146.81H146.887H146.963H147.04H147.117H147.194H147.271H147.348H147.426H147.503H147.581H147.659H147.737H147.815H147.893H147.972H148.05H148.129H148.207H148.286H148.365H148.444H148.524H148.603H148.682H148.762H148.842H148.922H149.001H149.081H149.162H149.242H149.322H149.403H149.483H149.564H149.645H149.726H149.807H149.888H149.969H150.05H150.132H150.213H150.295H150.377H150.458H150.54H150.622H150.704H150.786H150.869H150.951H151.033H151.116H151.198H151.281H151.364H151.446H151.529H151.612H151.695H151.778H151.862H151.945H152.028H152.112H152.195H152.278H152.362H152.446H152.529H152.613H152.697H152.781H152.865H152.949H153.033H153.117H153.201H153.285H153.37H153.454H153.538H153.623H153.707H153.792H153.876H153.961H154.045H154.13H154.215H154.299H154.384H154.469H154.554H154.639H154.724H154.809H154.894H154.979H155.064H155.149H155.234H155.319H155.404H155.489H155.574H155.659H155.745H155.83H155.915H156H156.086H156.171H156.256H156.341H156.427H156.512H156.597H156.683H156.768H156.853H156.938H157.024H157.109H157.194H157.28H157.365H157.45H157.536H157.621H157.706H157.791H157.877H157.962H158.047H158.132H158.217H158.302H158.388H158.473H158.558H158.643H158.728H158.813H158.898H158.983H159.068H159.153H159.238H159.322H159.407H159.492H159.577H159.661H159.746H159.831H159.915H160H160.084H160.169H160.253H160.338H160.422H160.506H160.59H160.674H160.759H160.843H160.927H161.01H161.094H161.178H161.262H161.346H161.429H161.513H161.596H161.68H161.763H161.846H161.93H162.013H162.096H162.179H162.262H162.345H162.427H162.51H162.593H162.675H162.758H162.84H162.922H163.005H163.087H163.169H163.251H163.333H163.414H163.496H163.578H163.659H163.74H163.822H163.903H163.984H164.065H164.146H164.227H164.307H164.388H164.468H164.549H164.629H164.709H164.789H164.869H164.949H165.029H165.108H165.188H165.267H165.346H165.425H165.504H165.583H165.662H165.74H165.819H165.897H165.975H166.053H166.131H166.209H166.287H166.364H166.442H166.519H166.596H166.673H166.75H166.827H166.903H166.98H167.056H167.132H167.208H167.284H167.36H167.435H167.51H167.586H167.661H167.736H167.81H167.885H167.959H168.034H168.108H168.182H168.255H168.329H168.402H168.476H168.549H168.622H168.694H168.767H168.839H168.912H168.984H169.056H169.127H169.199H169.27H169.341H169.412H169.483H169.553H169.624H169.694H169.764H169.834H169.904H169.973H170.042H170.111H170.18H170.249H170.317H170.385H170.453H170.521H170.589H170.656H170.724H170.791H170.857H170.924H170.99H171.057H171.123H171.188H171.254H171.319H171.384H171.449H171.514H171.578H171.642H171.706H171.77H171.834H171.897H171.96H172.023H172.085H172.148H172.21H172.272H172.333H172.395H172.456H172.517H172.578H172.638H172.698H172.758H172.818H172.877H172.937H172.996H173.054H173.113H173.171H173.229H173.287H173.344H173.401H173.458H173.515H173.571H173.627H173.683H173.739H173.794H173.849H173.904H173.959H174.013H174.067H174.121H174.174H174.227H174.28H174.333H174.385H174.437H174.489H174.54H174.591H174.642H174.693H174.743H174.793H174.843H174.893H174.942H174.991H175.039H175.087H175.135H175.183H175.231H175.278H175.324H175.371H175.417H175.463H175.508H175.554H175.599H175.643H175.688H175.732H175.775H175.819H175.862H175.904H175.947H175.989H176.031H176.072H176.113H176.154H176.195H176.235H176.275H176.314H176.353H176.392H176.431H176.469H176.506H176.544H176.581H176.618H176.654H176.69H176.726H176.762H176.797H176.832H176.866H176.9H176.934H176.967H177C178.548 123.5 179.566 123.249 180.241 122.917C180.884 122.6 181.31 122.166 181.624 121.596C182.33 120.316 182.497 118.366 182.5 115.583C182.468 115.179 182.469 114.785 182.499 114.4ZM127.06 109.038C128.723 110.334 130.467 111.531 132.283 112.621C132.826 113.182 132.966 113.519 133 113.649L133 115.962L133 120.5V120.625L133.015 120.748C133.326 123.234 134.412 125.011 135.956 126.123C137.44 127.191 139.142 127.5 140.5 127.5H140.558H140.616H140.674H140.733H140.791H140.85H140.91H140.969H141.029H141.089H141.149H141.21H141.27H141.331H141.393H141.454H141.516H141.578H141.64H141.702H141.765H141.828H141.891H141.954H142.018H142.081H142.145H142.21H142.274H142.339H142.404H142.469H142.534H142.6H142.666H142.732H142.798H142.864H142.931H142.998H143.065H143.132H143.199H143.267H143.335H143.403H143.471H143.54H143.608H143.677H143.746H143.816H143.885H143.955H144.025H144.095H144.165H144.235H144.306H144.377H144.448H144.519H144.59H144.662H144.734H144.806H144.878H144.95H145.022H145.095H145.168H145.241H145.314H145.387H145.46H145.534H145.608H145.682H145.756H145.83H145.905H145.979H146.054H146.129H146.204H146.279H146.355H146.43H146.506H146.582H146.658H146.734H146.81H146.887H146.963H147.04H147.117H147.194H147.271H147.348H147.426H147.503H147.581H147.659H147.737H147.815H147.893H147.972H148.05H148.129H148.207H148.286H148.365H148.444H148.524H148.603H148.682H148.762H148.842H148.922H149.001H149.081H149.162H149.242H149.322H149.403H149.483H149.564H149.645H149.726H149.807H149.888H149.969H150.05H150.132H150.213H150.295H150.377H150.458H150.54H150.622H150.704H150.786H150.869H150.951H151.033H151.116H151.198H151.281H151.364H151.446H151.529H151.612H151.695H151.778H151.862H151.945H152.028H152.112H152.195H152.278H152.362H152.446H152.529H152.613H152.697H152.781H152.865H152.949H153.033H153.117H153.201H153.285H153.37H153.454H153.538H153.623H153.707H153.792H153.876H153.961H154.045H154.13H154.215H154.299H154.384H154.469H154.554H154.639H154.724H154.809H154.894H154.979H155.064H155.149H155.234H155.319H155.404H155.489H155.574H155.659H155.745H155.83H155.915H156H156.086H156.171H156.256H156.341H156.427H156.512H156.597H156.683H156.768H156.853H156.938H157.024H157.109H157.194H157.28H157.365H157.45H157.536H157.621H157.706H157.791H157.877H157.962H158.047H158.132H158.217H158.302H158.388H158.473H158.558H158.643H158.728H158.813H158.898H158.983H159.068H159.153H159.238H159.322H159.407H159.492H159.577H159.661H159.746H159.831H159.915H160H160.084H160.169H160.253H160.338H160.422H160.506H160.59H160.674H160.759H160.843H160.927H161.01H161.094H161.178H161.262H161.346H161.429H161.513H161.596H161.68H161.763H161.846H161.93H162.013H162.096H162.179H162.262H162.345H162.427H162.51H162.593H162.675H162.758H162.84H162.922H163.005H163.087H163.169H163.251H163.333H163.414H163.496H163.578H163.659H163.74H163.822H163.903H163.984H164.065H164.146H164.227H164.307H164.388H164.468H164.549H164.629H164.709H164.789H164.869H164.949H165.029H165.108H165.188H165.267H165.346H165.425H165.504H165.583H165.662H165.74H165.819H165.897H165.975H166.053H166.131H166.209H166.287H166.364H166.442H166.519H166.596H166.673H166.75H166.827H166.903H166.98H167.056H167.132H167.208H167.284H167.36H167.435H167.51H167.586H167.661H167.736H167.81H167.885H167.959H168.034H168.108H168.182H168.255H168.329H168.402H168.476H168.549H168.622H168.694H168.767H168.839H168.912H168.984H169.056H169.127H169.199H169.27H169.341H169.412H169.483H169.553H169.624H169.694H169.764H169.834H169.904H169.973H170.042H170.111H170.18H170.249H170.317H170.385H170.453H170.521H170.589H170.656H170.724H170.791H170.857H170.924H170.99H171.057H171.123H171.188H171.254H171.319H171.384H171.449H171.514H171.578H171.642H171.706H171.77H171.834H171.897H171.96H172.023H172.085H172.148H172.21H172.272H172.333H172.395H172.456H172.517H172.578H172.638H172.698H172.758H172.818H172.877H172.937H172.996H173.054H173.113H173.171H173.229H173.287H173.344H173.401H173.458H173.515H173.571H173.627H173.683H173.739H173.794H173.849H173.904H173.959H174.013H174.067H174.121H174.174H174.227H174.28H174.333H174.385H174.437H174.489H174.54H174.591H174.642H174.693H174.743H174.793H174.843H174.893H174.942H174.991H175.039H175.087H175.135H175.183H175.231H175.278H175.324H175.371H175.417H175.463H175.508H175.554H175.599H175.643H175.688H175.732H175.775H175.819H175.862H175.904H175.947H175.989H176.031H176.072H176.113H176.154H176.195H176.235H176.275H176.314H176.353H176.392H176.431H176.469H176.506H176.544H176.581H176.618H176.654H176.69H176.726H176.762H176.797H176.832H176.866H176.9H176.934H176.967H177C178.952 127.5 180.622 127.188 182.009 126.505C183.428 125.806 184.44 124.772 185.126 123.529C186.413 121.196 186.5 118.173 186.5 115.5V115.409L186.492 115.319C186.367 113.944 187.056 112.53 188.357 111.17C188.725 110.787 189.12 110.43 189.523 110.104C189.844 109.871 190.161 109.635 190.476 109.395C191.162 108.926 191.821 108.557 192.346 108.312L192.208 108.017C203.689 98.4788 211 84.0931 211 68C211 39.2812 187.719 16 159 16C130.281 16 107 39.2812 107 68C107 84.4669 114.654 99.1461 126.599 108.674L126.552 108.761C126.725 108.854 126.895 108.946 127.06 109.038Z" fill="#D9D9D9"/>
<path d="M187.101 106.919L189.445 110.16L189.522 110.104L189.596 110.045L187.101 106.919ZM134.733 109.423L132.002 112.346L132.326 112.648L132.708 112.873L134.733 109.423ZM134.464 109.178L137.116 106.184L137.116 106.184L134.464 109.178ZM129.278 105.694L126.8 108.833L127.051 109.031L127.33 109.187L129.278 105.694ZM188.124 106.158L190.401 109.446L190.478 109.393L190.553 109.336L188.124 106.158ZM182.499 114.4L186.487 114.707L187.033 107.614L180.689 110.833L182.499 114.4ZM137 115.131L138.694 111.507L133 108.845L133 115.13L137 115.131ZM137 115.963L133 115.962L133 115.962L137 115.963ZM137 120.368L133 120.368L133 120.65L133.04 120.93L137 120.368ZM138.294 122.877L140.631 119.631L140.631 119.631L138.294 122.877ZM180.241 122.917L182.009 126.505L182.009 126.505L180.241 122.917ZM181.624 121.596L178.122 119.664L178.122 119.664L181.624 121.596ZM182.5 115.583L186.5 115.588L186.5 115.43L186.488 115.272L182.5 115.583ZM127.06 109.038L129.519 105.883L129.268 105.687L128.989 105.534L127.06 109.038ZM132.283 112.621L135.157 109.839L134.792 109.461L134.341 109.191L132.283 112.621ZM133 113.649L137 113.649L137 113.13L136.868 112.629L133 113.649ZM133 115.962L129 115.962L129 115.962L133 115.962ZM133 120.5L129 120.5V120.5H133ZM133 120.625H129V120.874L129.031 121.121L133 120.625ZM133.015 120.748L136.985 120.252L136.985 120.252L133.015 120.748ZM135.956 126.123L133.619 129.369L133.619 129.369L135.956 126.123ZM182.009 126.505L180.241 122.917L180.241 122.917L182.009 126.505ZM185.126 123.529L188.628 125.461L188.628 125.461L185.126 123.529ZM186.5 115.409H190.5V115.228L190.484 115.047L186.5 115.409ZM186.492 115.319L190.475 114.957L190.475 114.957L186.492 115.319ZM188.357 111.17L191.247 113.936L191.247 113.936L188.357 111.17ZM189.523 110.104L187.173 106.867L187.089 106.928L187.008 106.994L189.523 110.104ZM190.476 109.395L188.218 106.094L188.134 106.151L188.053 106.213L190.476 109.395ZM192.346 108.312L194.037 111.937L197.662 110.246L195.971 106.621L192.346 108.312ZM192.208 108.017L189.652 104.94L187.278 106.912L188.583 109.709L192.208 108.017ZM126.599 108.674L130.121 110.57L131.704 107.63L129.093 105.547L126.599 108.674ZM126.552 108.761L123.03 106.865L121.134 110.387L124.656 112.283L126.552 108.761ZM159 120C170.364 120 180.886 116.35 189.445 110.16L184.756 103.678C177.516 108.915 168.624 112 159 112V120ZM132.708 112.873C140.426 117.403 149.416 120 159 120V112C150.878 112 143.281 109.803 136.759 105.974L132.708 112.873ZM131.811 112.172C131.878 112.231 131.941 112.289 132.002 112.346L137.464 106.5C137.349 106.392 137.233 106.287 137.116 106.184L131.811 112.172ZM127.33 109.187C129.456 110.373 130.893 111.358 131.811 112.172L137.116 106.184C135.583 104.826 133.587 103.516 131.227 102.2L127.33 109.187ZM107 68C107 84.562 114.747 99.3169 126.8 108.833L131.757 102.554C121.544 94.4899 115 82.0103 115 68H107ZM159 16C130.281 16 107 39.2812 107 68H115C115 43.6995 134.699 24 159 24V16ZM211 68C211 39.2812 187.719 16 159 16V24C183.301 24 203 43.6995 203 68H211ZM190.553 109.336C202.975 99.8411 211 84.857 211 68H203C203 82.2592 196.221 94.9336 185.694 102.98L190.553 109.336ZM189.596 110.045C189.862 109.833 190.133 109.633 190.401 109.446L185.846 102.87C185.437 103.153 185.021 103.461 184.605 103.793L189.596 110.045ZM159 124C168.1 124 176.703 121.827 184.309 117.967L180.689 110.833C174.179 114.136 166.813 116 159 116V124ZM135.306 118.754C142.507 122.121 150.539 124 159 124V116C151.735 116 144.856 114.388 138.694 111.507L135.306 118.754ZM133 115.13L133 115.962L141 115.963L141 115.131L133 115.13ZM133 115.962L133 120.368L141 120.368L141 115.963L133 115.962ZM133.04 120.93C133.381 123.336 134.463 125.048 135.956 126.123L140.631 119.631C140.698 119.679 140.77 119.741 140.838 119.814C140.906 119.888 140.955 119.958 140.987 120.012C141.053 120.126 141.002 120.1 140.96 119.805L133.04 120.93ZM135.956 126.123C137.437 127.189 139.138 127.5 140.5 127.5V119.5C140.454 119.5 140.418 119.497 140.393 119.494C140.368 119.491 140.359 119.488 140.365 119.49C140.372 119.492 140.478 119.521 140.631 119.631L135.956 126.123ZM140.5 127.5H140.558V119.5H140.5V127.5ZM140.558 127.5H140.616V119.5H140.558V127.5ZM140.616 127.5H140.674V119.5H140.616V127.5ZM140.674 127.5H140.733V119.5H140.674V127.5ZM140.733 127.5H140.791V119.5H140.733V127.5ZM140.791 127.5H140.85V119.5H140.791V127.5ZM140.85 127.5H140.91V119.5H140.85V127.5ZM140.91 127.5H140.969V119.5H140.91V127.5ZM140.969 127.5H141.029V119.5H140.969V127.5ZM141.029 127.5H141.089V119.5H141.029V127.5ZM141.089 127.5H141.149V119.5H141.089V127.5ZM141.149 127.5H141.21V119.5H141.149V127.5ZM141.21 127.5H141.27V119.5H141.21V127.5ZM141.27 127.5H141.331V119.5H141.27V127.5ZM141.331 127.5H141.393V119.5H141.331V127.5ZM141.393 127.5H141.454V119.5H141.393V127.5ZM141.454 127.5H141.516V119.5H141.454V127.5ZM141.516 127.5H141.578V119.5H141.516V127.5ZM141.578 127.5H141.64V119.5H141.578V127.5ZM141.64 127.5H141.702V119.5H141.64V127.5ZM141.702 127.5H141.765V119.5H141.702V127.5ZM141.765 127.5H141.828V119.5H141.765V127.5ZM141.828 127.5H141.891V119.5H141.828V127.5ZM141.891 127.5H141.954V119.5H141.891V127.5ZM141.954 127.5H142.018V119.5H141.954V127.5ZM142.018 127.5H142.081V119.5H142.018V127.5ZM142.081 127.5H142.145V119.5H142.081V127.5ZM142.145 127.5H142.21V119.5H142.145V127.5ZM142.21 127.5H142.274V119.5H142.21V127.5ZM142.274 127.5H142.339V119.5H142.274V127.5ZM142.339 127.5H142.404V119.5H142.339V127.5ZM142.404 127.5H142.469V119.5H142.404V127.5ZM142.469 127.5H142.534V119.5H142.469V127.5ZM142.534 127.5H142.6V119.5H142.534V127.5ZM142.6 127.5H142.666V119.5H142.6V127.5ZM142.666 127.5H142.732V119.5H142.666V127.5ZM142.732 127.5H142.798V119.5H142.732V127.5ZM142.798 127.5H142.864V119.5H142.798V127.5ZM142.864 127.5H142.931V119.5H142.864V127.5ZM142.931 127.5H142.998V119.5H142.931V127.5ZM142.998 127.5H143.065V119.5H142.998V127.5ZM143.065 127.5H143.132V119.5H143.065V127.5ZM143.132 127.5H143.199V119.5H143.132V127.5ZM143.199 127.5H143.267V119.5H143.199V127.5ZM143.267 127.5H143.335V119.5H143.267V127.5ZM143.335 127.5H143.403V119.5H143.335V127.5ZM143.403 127.5H143.471V119.5H143.403V127.5ZM143.471 127.5H143.54V119.5H143.471V127.5ZM143.54 127.5H143.608V119.5H143.54V127.5ZM143.608 127.5H143.677V119.5H143.608V127.5ZM143.677 127.5H143.746V119.5H143.677V127.5ZM143.746 127.5H143.816V119.5H143.746V127.5ZM143.816 127.5H143.885V119.5H143.816V127.5ZM143.885 127.5H143.955V119.5H143.885V127.5ZM143.955 127.5H144.025V119.5H143.955V127.5ZM144.025 127.5H144.095V119.5H144.025V127.5ZM144.095 127.5H144.165V119.5H144.095V127.5ZM144.165 127.5H144.235V119.5H144.165V127.5ZM144.235 127.5H144.306V119.5H144.235V127.5ZM144.306 127.5H144.377V119.5H144.306V127.5ZM144.377 127.5H144.448V119.5H144.377V127.5ZM144.448 127.5H144.519V119.5H144.448V127.5ZM144.519 127.5H144.59V119.5H144.519V127.5ZM144.59 127.5H144.662V119.5H144.59V127.5ZM144.662 127.5H144.734V119.5H144.662V127.5ZM144.734 127.5H144.806V119.5H144.734V127.5ZM144.806 127.5H144.878V119.5H144.806V127.5ZM144.878 127.5H144.95V119.5H144.878V127.5ZM144.95 127.5H145.022V119.5H144.95V127.5ZM145.022 127.5H145.095V119.5H145.022V127.5ZM145.095 127.5H145.168V119.5H145.095V127.5ZM145.168 127.5H145.241V119.5H145.168V127.5ZM145.241 127.5H145.314V119.5H145.241V127.5ZM145.314 127.5H145.387V119.5H145.314V127.5ZM145.387 127.5H145.46V119.5H145.387V127.5ZM145.46 127.5H145.534V119.5H145.46V127.5ZM145.534 127.5H145.608V119.5H145.534V127.5ZM145.608 127.5H145.682V119.5H145.608V127.5ZM145.682 127.5H145.756V119.5H145.682V127.5ZM145.756 127.5H145.83V119.5H145.756V127.5ZM145.83 127.5H145.905V119.5H145.83V127.5ZM145.905 127.5H145.979V119.5H145.905V127.5ZM145.979 127.5H146.054V119.5H145.979V127.5ZM146.054 127.5H146.129V119.5H146.054V127.5ZM146.129 127.5H146.204V119.5H146.129V127.5ZM146.204 127.5H146.279V119.5H146.204V127.5ZM146.279 127.5H146.355V119.5H146.279V127.5ZM146.355 127.5H146.43V119.5H146.355V127.5ZM146.43 127.5H146.506V119.5H146.43V127.5ZM146.506 127.5H146.582V119.5H146.506V127.5ZM146.582 127.5H146.658V119.5H146.582V127.5ZM146.658 127.5H146.734V119.5H146.658V127.5ZM146.734 127.5H146.81V119.5H146.734V127.5ZM146.81 127.5H146.887V119.5H146.81V127.5ZM146.887 127.5H146.963V119.5H146.887V127.5ZM146.963 127.5H147.04V119.5H146.963V127.5ZM147.04 127.5H147.117V119.5H147.04V127.5ZM147.117 127.5H147.194V119.5H147.117V127.5ZM147.194 127.5H147.271V119.5H147.194V127.5ZM147.271 127.5H147.348V119.5H147.271V127.5ZM147.348 127.5H147.426V119.5H147.348V127.5ZM147.426 127.5H147.503V119.5H147.426V127.5ZM147.503 127.5H147.581V119.5H147.503V127.5ZM147.581 127.5H147.659V119.5H147.581V127.5ZM147.659 127.5H147.737V119.5H147.659V127.5ZM147.737 127.5H147.815V119.5H147.737V127.5ZM147.815 127.5H147.893V119.5H147.815V127.5ZM147.893 127.5H147.972V119.5H147.893V127.5ZM147.972 127.5H148.05V119.5H147.972V127.5ZM148.05 127.5H148.129V119.5H148.05V127.5ZM148.129 127.5H148.207V119.5H148.129V127.5ZM148.207 127.5H148.286V119.5H148.207V127.5ZM148.286 127.5H148.365V119.5H148.286V127.5ZM148.365 127.5H148.444V119.5H148.365V127.5ZM148.444 127.5H148.524V119.5H148.444V127.5ZM148.524 127.5H148.603V119.5H148.524V127.5ZM148.603 127.5H148.682V119.5H148.603V127.5ZM148.682 127.5H148.762V119.5H148.682V127.5ZM148.762 127.5H148.842V119.5H148.762V127.5ZM148.842 127.5H148.922V119.5H148.842V127.5ZM148.922 127.5H149.001V119.5H148.922V127.5ZM149.001 127.5H149.081V119.5H149.001V127.5ZM149.081 127.5H149.162V119.5H149.081V127.5ZM149.162 127.5H149.242V119.5H149.162V127.5ZM149.242 127.5H149.322V119.5H149.242V127.5ZM149.322 127.5H149.403V119.5H149.322V127.5ZM149.403 127.5H149.483V119.5H149.403V127.5ZM149.483 127.5H149.564V119.5H149.483V127.5ZM149.564 127.5H149.645V119.5H149.564V127.5ZM149.645 127.5H149.726V119.5H149.645V127.5ZM149.726 127.5H149.807V119.5H149.726V127.5ZM149.807 127.5H149.888V119.5H149.807V127.5ZM149.888 127.5H149.969V119.5H149.888V127.5ZM149.969 127.5H150.05V119.5H149.969V127.5ZM150.05 127.5H150.132V119.5H150.05V127.5ZM150.132 127.5H150.213V119.5H150.132V127.5ZM150.213 127.5H150.295V119.5H150.213V127.5ZM150.295 127.5H150.377V119.5H150.295V127.5ZM150.377 127.5H150.458V119.5H150.377V127.5ZM150.458 127.5H150.54V119.5H150.458V127.5ZM150.54 127.5H150.622V119.5H150.54V127.5ZM150.622 127.5H150.704V119.5H150.622V127.5ZM150.704 127.5H150.786V119.5H150.704V127.5ZM150.786 127.5H150.869V119.5H150.786V127.5ZM150.869 127.5H150.951V119.5H150.869V127.5ZM150.951 127.5H151.033V119.5H150.951V127.5ZM151.033 127.5H151.116V119.5H151.033V127.5ZM151.116 127.5H151.198V119.5H151.116V127.5ZM151.198 127.5H151.281V119.5H151.198V127.5ZM151.281 127.5H151.364V119.5H151.281V127.5ZM151.364 127.5H151.446V119.5H151.364V127.5ZM151.446 127.5H151.529V119.5H151.446V127.5ZM151.529 127.5H151.612V119.5H151.529V127.5ZM151.612 127.5H151.695V119.5H151.612V127.5ZM151.695 127.5H151.778V119.5H151.695V127.5ZM151.778 127.5H151.862V119.5H151.778V127.5ZM151.862 127.5H151.945V119.5H151.862V127.5ZM151.945 127.5H152.028V119.5H151.945V127.5ZM152.028 127.5H152.112V119.5H152.028V127.5ZM152.112 127.5H152.195V119.5H152.112V127.5ZM152.195 127.5H152.278V119.5H152.195V127.5ZM152.278 127.5H152.362V119.5H152.278V127.5ZM152.362 127.5H152.446V119.5H152.362V127.5ZM152.446 127.5H152.529V119.5H152.446V127.5ZM152.529 127.5H152.613V119.5H152.529V127.5ZM152.613 127.5H152.697V119.5H152.613V127.5ZM152.697 127.5H152.781V119.5H152.697V127.5ZM152.781 127.5H152.865V119.5H152.781V127.5ZM152.865 127.5H152.949V119.5H152.865V127.5ZM152.949 127.5H153.033V119.5H152.949V127.5ZM153.033 127.5H153.117V119.5H153.033V127.5ZM153.117 127.5H153.201V119.5H153.117V127.5ZM153.201 127.5H153.285V119.5H153.201V127.5ZM153.285 127.5H153.37V119.5H153.285V127.5ZM153.37 127.5H153.454V119.5H153.37V127.5ZM153.454 127.5H153.538V119.5H153.454V127.5ZM153.538 127.5H153.623V119.5H153.538V127.5ZM153.623 127.5H153.707V119.5H153.623V127.5ZM153.707 127.5H153.792V119.5H153.707V127.5ZM153.792 127.5H153.876V119.5H153.792V127.5ZM153.876 127.5H153.961V119.5H153.876V127.5ZM153.961 127.5H154.045V119.5H153.961V127.5ZM154.045 127.5H154.13V119.5H154.045V127.5ZM154.13 127.5H154.215V119.5H154.13V127.5ZM154.215 127.5H154.299V119.5H154.215V127.5ZM154.299 127.5H154.384V119.5H154.299V127.5ZM154.384 127.5H154.469V119.5H154.384V127.5ZM154.469 127.5H154.554V119.5H154.469V127.5ZM154.554 127.5H154.639V119.5H154.554V127.5ZM154.639 127.5H154.724V119.5H154.639V127.5ZM154.724 127.5H154.809V119.5H154.724V127.5ZM154.809 127.5H154.894V119.5H154.809V127.5ZM154.894 127.5H154.979V119.5H154.894V127.5ZM154.979 127.5H155.064V119.5H154.979V127.5ZM155.064 127.5H155.149V119.5H155.064V127.5ZM155.149 127.5H155.234V119.5H155.149V127.5ZM155.234 127.5H155.319V119.5H155.234V127.5ZM155.319 127.5H155.404V119.5H155.319V127.5ZM155.404 127.5H155.489V119.5H155.404V127.5ZM155.489 127.5H155.574V119.5H155.489V127.5ZM155.574 127.5H155.659V119.5H155.574V127.5ZM155.659 127.5H155.745V119.5H155.659V127.5ZM155.745 127.5H155.83V119.5H155.745V127.5ZM155.83 127.5H155.915V119.5H155.83V127.5ZM155.915 127.5H156V119.5H155.915V127.5ZM156 127.5H156.086V119.5H156V127.5ZM156.086 127.5H156.171V119.5H156.086V127.5ZM156.171 127.5H156.256V119.5H156.171V127.5ZM156.256 127.5H156.341V119.5H156.256V127.5ZM156.341 127.5H156.427V119.5H156.341V127.5ZM156.427 127.5H156.512V119.5H156.427V127.5ZM156.512 127.5H156.597V119.5H156.512V127.5ZM156.597 127.5H156.683V119.5H156.597V127.5ZM156.683 127.5H156.768V119.5H156.683V127.5ZM156.768 127.5H156.853V119.5H156.768V127.5ZM156.853 127.5H156.938V119.5H156.853V127.5ZM156.938 127.5H157.024V119.5H156.938V127.5ZM157.024 127.5H157.109V119.5H157.024V127.5ZM157.109 127.5H157.194V119.5H157.109V127.5ZM157.194 127.5H157.28V119.5H157.194V127.5ZM157.28 127.5H157.365V119.5H157.28V127.5ZM157.365 127.5H157.45V119.5H157.365V127.5ZM157.45 127.5H157.536V119.5H157.45V127.5ZM157.536 127.5H157.621V119.5H157.536V127.5ZM157.621 127.5H157.706V119.5H157.621V127.5ZM157.706 127.5H157.791V119.5H157.706V127.5ZM157.791 127.5H157.877V119.5H157.791V127.5ZM157.877 127.5H157.962V119.5H157.877V127.5ZM157.962 127.5H158.047V119.5H157.962V127.5ZM158.047 127.5H158.132V119.5H158.047V127.5ZM158.132 127.5H158.217V119.5H158.132V127.5ZM158.217 127.5H158.302V119.5H158.217V127.5ZM158.302 127.5H158.388V119.5H158.302V127.5ZM158.388 127.5H158.473V119.5H158.388V127.5ZM158.473 127.5H158.558V119.5H158.473V127.5ZM158.558 127.5H158.643V119.5H158.558V127.5ZM158.643 127.5H158.728V119.5H158.643V127.5ZM158.728 127.5H158.813V119.5H158.728V127.5ZM158.813 127.5H158.898V119.5H158.813V127.5ZM158.898 127.5H158.983V119.5H158.898V127.5ZM158.983 127.5H159.068V119.5H158.983V127.5ZM159.068 127.5H159.153V119.5H159.068V127.5ZM159.153 127.5H159.238V119.5H159.153V127.5ZM159.238 127.5H159.322V119.5H159.238V127.5ZM159.322 127.5H159.407V119.5H159.322V127.5ZM159.407 127.5H159.492V119.5H159.407V127.5ZM159.492 127.5H159.577V119.5H159.492V127.5ZM159.577 127.5H159.661V119.5H159.577V127.5ZM159.661 127.5H159.746V119.5H159.661V127.5ZM159.746 127.5H159.831V119.5H159.746V127.5ZM159.831 127.5H159.915V119.5H159.831V127.5ZM159.915 127.5H160V119.5H159.915V127.5ZM160 127.5H160.084V119.5H160V127.5ZM160.084 127.5H160.169V119.5H160.084V127.5ZM160.169 127.5H160.253V119.5H160.169V127.5ZM160.253 127.5H160.338V119.5H160.253V127.5ZM160.338 127.5H160.422V119.5H160.338V127.5ZM160.422 127.5H160.506V119.5H160.422V127.5ZM160.506 127.5H160.59V119.5H160.506V127.5ZM160.59 127.5H160.674V119.5H160.59V127.5ZM160.674 127.5H160.759V119.5H160.674V127.5ZM160.759 127.5H160.843V119.5H160.759V127.5ZM160.843 127.5H160.927V119.5H160.843V127.5ZM160.927 127.5H161.01V119.5H160.927V127.5ZM161.01 127.5H161.094V119.5H161.01V127.5ZM161.094 127.5H161.178V119.5H161.094V127.5ZM161.178 127.5H161.262V119.5H161.178V127.5ZM161.262 127.5H161.346V119.5H161.262V127.5ZM161.346 127.5H161.429V119.5H161.346V127.5ZM161.429 127.5H161.513V119.5H161.429V127.5ZM161.513 127.5H161.596V119.5H161.513V127.5ZM161.596 127.5H161.68V119.5H161.596V127.5ZM161.68 127.5H161.763V119.5H161.68V127.5ZM161.763 127.5H161.846V119.5H161.763V127.5ZM161.846 127.5H161.93V119.5H161.846V127.5ZM161.93 127.5H162.013V119.5H161.93V127.5ZM162.013 127.5H162.096V119.5H162.013V127.5ZM162.096 127.5H162.179V119.5H162.096V127.5ZM162.179 127.5H162.262V119.5H162.179V127.5ZM162.262 127.5H162.345V119.5H162.262V127.5ZM162.345 127.5H162.427V119.5H162.345V127.5ZM162.427 127.5H162.51V119.5H162.427V127.5ZM162.51 127.5H162.593V119.5H162.51V127.5ZM162.593 127.5H162.675V119.5H162.593V127.5ZM162.675 127.5H162.758V119.5H162.675V127.5ZM162.758 127.5H162.84V119.5H162.758V127.5ZM162.84 127.5H162.922V119.5H162.84V127.5ZM162.922 127.5H163.005V119.5H162.922V127.5ZM163.005 127.5H163.087V119.5H163.005V127.5ZM163.087 127.5H163.169V119.5H163.087V127.5ZM163.169 127.5H163.251V119.5H163.169V127.5ZM163.251 127.5H163.333V119.5H163.251V127.5ZM163.333 127.5H163.414V119.5H163.333V127.5ZM163.414 127.5H163.496V119.5H163.414V127.5ZM163.496 127.5H163.578V119.5H163.496V127.5ZM163.578 127.5H163.659V119.5H163.578V127.5ZM163.659 127.5H163.74V119.5H163.659V127.5ZM163.74 127.5H163.822V119.5H163.74V127.5ZM163.822 127.5H163.903V119.5H163.822V127.5ZM163.903 127.5H163.984V119.5H163.903V127.5ZM163.984 127.5H164.065V119.5H163.984V127.5ZM164.065 127.5H164.146V119.5H164.065V127.5ZM164.146 127.5H164.227V119.5H164.146V127.5ZM164.227 127.5H164.307V119.5H164.227V127.5ZM164.307 127.5H164.388V119.5H164.307V127.5ZM164.388 127.5H164.468V119.5H164.388V127.5ZM164.468 127.5H164.549V119.5H164.468V127.5ZM164.549 127.5H164.629V119.5H164.549V127.5ZM164.629 127.5H164.709V119.5H164.629V127.5ZM164.709 127.5H164.789V119.5H164.709V127.5ZM164.789 127.5H164.869V119.5H164.789V127.5ZM164.869 127.5H164.949V119.5H164.869V127.5ZM164.949 127.5H165.029V119.5H164.949V127.5ZM165.029 127.5H165.108V119.5H165.029V127.5ZM165.108 127.5H165.188V119.5H165.108V127.5ZM165.188 127.5H165.267V119.5H165.188V127.5ZM165.267 127.5H165.346V119.5H165.267V127.5ZM165.346 127.5H165.425V119.5H165.346V127.5ZM165.425 127.5H165.504V119.5H165.425V127.5ZM165.504 127.5H165.583V119.5H165.504V127.5ZM165.583 127.5H165.662V119.5H165.583V127.5ZM165.662 127.5H165.74V119.5H165.662V127.5ZM165.74 127.5H165.819V119.5H165.74V127.5ZM165.819 127.5H165.897V119.5H165.819V127.5ZM165.897 127.5H165.975V119.5H165.897V127.5ZM165.975 127.5H166.053V119.5H165.975V127.5ZM166.053 127.5H166.131V119.5H166.053V127.5ZM166.131 127.5H166.209V119.5H166.131V127.5ZM166.209 127.5H166.287V119.5H166.209V127.5ZM166.287 127.5H166.364V119.5H166.287V127.5ZM166.364 127.5H166.442V119.5H166.364V127.5ZM166.442 127.5H166.519V119.5H166.442V127.5ZM166.519 127.5H166.596V119.5H166.519V127.5ZM166.596 127.5H166.673V119.5H166.596V127.5ZM166.673 127.5H166.75V119.5H166.673V127.5ZM166.75 127.5H166.827V119.5H166.75V127.5ZM166.827 127.5H166.903V119.5H166.827V127.5ZM166.903 127.5H166.98V119.5H166.903V127.5ZM166.98 127.5H167.056V119.5H166.98V127.5ZM167.056 127.5H167.132V119.5H167.056V127.5ZM167.132 127.5H167.208V119.5H167.132V127.5ZM167.208 127.5H167.284V119.5H167.208V127.5ZM167.284 127.5H167.36V119.5H167.284V127.5ZM167.36 127.5H167.435V119.5H167.36V127.5ZM167.435 127.5H167.51V119.5H167.435V127.5ZM167.51 127.5H167.586V119.5H167.51V127.5ZM167.586 127.5H167.661V119.5H167.586V127.5ZM167.661 127.5H167.736V119.5H167.661V127.5ZM167.736 127.5H167.81V119.5H167.736V127.5ZM167.81 127.5H167.885V119.5H167.81V127.5ZM167.885 127.5H167.959V119.5H167.885V127.5ZM167.959 127.5H168.034V119.5H167.959V127.5ZM168.034 127.5H168.108V119.5H168.034V127.5ZM168.108 127.5H168.182V119.5H168.108V127.5ZM168.182 127.5H168.255V119.5H168.182V127.5ZM168.255 127.5H168.329V119.5H168.255V127.5ZM168.329 127.5H168.402V119.5H168.329V127.5ZM168.402 127.5H168.476V119.5H168.402V127.5ZM168.476 127.5H168.549V119.5H168.476V127.5ZM168.549 127.5H168.622V119.5H168.549V127.5ZM168.622 127.5H168.694V119.5H168.622V127.5ZM168.694 127.5H168.767V119.5H168.694V127.5ZM168.767 127.5H168.839V119.5H168.767V127.5ZM168.839 127.5H168.912V119.5H168.839V127.5ZM168.912 127.5H168.984V119.5H168.912V127.5ZM168.984 127.5H169.056V119.5H168.984V127.5ZM169.056 127.5H169.127V119.5H169.056V127.5ZM169.127 127.5H169.199V119.5H169.127V127.5ZM169.199 127.5H169.27V119.5H169.199V127.5ZM169.27 127.5H169.341V119.5H169.27V127.5ZM169.341 127.5H169.412V119.5H169.341V127.5ZM169.412 127.5H169.483V119.5H169.412V127.5ZM169.483 127.5H169.553V119.5H169.483V127.5ZM169.553 127.5H169.624V119.5H169.553V127.5ZM169.624 127.5H169.694V119.5H169.624V127.5ZM169.694 127.5H169.764V119.5H169.694V127.5ZM169.764 127.5H169.834V119.5H169.764V127.5ZM169.834 127.5H169.904V119.5H169.834V127.5ZM169.904 127.5H169.973V119.5H169.904V127.5ZM169.973 127.5H170.042V119.5H169.973V127.5ZM170.042 127.5H170.111V119.5H170.042V127.5ZM170.111 127.5H170.18V119.5H170.111V127.5ZM170.18 127.5H170.249V119.5H170.18V127.5ZM170.249 127.5H170.317V119.5H170.249V127.5ZM170.317 127.5H170.385V119.5H170.317V127.5ZM170.385 127.5H170.453V119.5H170.385V127.5ZM170.453 127.5H170.521V119.5H170.453V127.5ZM170.521 127.5H170.589V119.5H170.521V127.5ZM170.589 127.5H170.656V119.5H170.589V127.5ZM170.656 127.5H170.724V119.5H170.656V127.5ZM170.724 127.5H170.791V119.5H170.724V127.5ZM170.791 127.5H170.857V119.5H170.791V127.5ZM170.857 127.5H170.924V119.5H170.857V127.5ZM170.924 127.5H170.99V119.5H170.924V127.5ZM170.99 127.5H171.057V119.5H170.99V127.5ZM171.057 127.5H171.123V119.5H171.057V127.5ZM171.123 127.5H171.188V119.5H171.123V127.5ZM171.188 127.5H171.254V119.5H171.188V127.5ZM171.254 127.5H171.319V119.5H171.254V127.5ZM171.319 127.5H171.384V119.5H171.319V127.5ZM171.384 127.5H171.449V119.5H171.384V127.5ZM171.449 127.5H171.514V119.5H171.449V127.5ZM171.514 127.5H171.578V119.5H171.514V127.5ZM171.578 127.5H171.642V119.5H171.578V127.5ZM171.642 127.5H171.706V119.5H171.642V127.5ZM171.706 127.5H171.77V119.5H171.706V127.5ZM171.77 127.5H171.834V119.5H171.77V127.5ZM171.834 127.5H171.897V119.5H171.834V127.5ZM171.897 127.5H171.96V119.5H171.897V127.5ZM171.96 127.5H172.023V119.5H171.96V127.5ZM172.023 127.5H172.085V119.5H172.023V127.5ZM172.085 127.5H172.148V119.5H172.085V127.5ZM172.148 127.5H172.21V119.5H172.148V127.5ZM172.21 127.5H172.272V119.5H172.21V127.5ZM172.272 127.5H172.333V119.5H172.272V127.5ZM172.333 127.5H172.395V119.5H172.333V127.5ZM172.395 127.5H172.456V119.5H172.395V127.5ZM172.456 127.5H172.517V119.5H172.456V127.5ZM172.517 127.5H172.578V119.5H172.517V127.5ZM172.578 127.5H172.638V119.5H172.578V127.5ZM172.638 127.5H172.698V119.5H172.638V127.5ZM172.698 127.5H172.758V119.5H172.698V127.5ZM172.758 127.5H172.818V119.5H172.758V127.5ZM172.818 127.5H172.877V119.5H172.818V127.5ZM172.877 127.5H172.937V119.5H172.877V127.5ZM172.937 127.5H172.996V119.5H172.937V127.5ZM172.996 127.5H173.054V119.5H172.996V127.5ZM173.054 127.5H173.113V119.5H173.054V127.5ZM173.113 127.5H173.171V119.5H173.113V127.5ZM173.171 127.5H173.229V119.5H173.171V127.5ZM173.229 127.5H173.287V119.5H173.229V127.5ZM173.287 127.5H173.344V119.5H173.287V127.5ZM173.344 127.5H173.401V119.5H173.344V127.5ZM173.401 127.5H173.458V119.5H173.401V127.5ZM173.458 127.5H173.515V119.5H173.458V127.5ZM173.515 127.5H173.571V119.5H173.515V127.5ZM173.571 127.5H173.627V119.5H173.571V127.5ZM173.627 127.5H173.683V119.5H173.627V127.5ZM173.683 127.5H173.739V119.5H173.683V127.5ZM173.739 127.5H173.794V119.5H173.739V127.5ZM173.794 127.5H173.849V119.5H173.794V127.5ZM173.849 127.5H173.904V119.5H173.849V127.5ZM173.904 127.5H173.959V119.5H173.904V127.5ZM173.959 127.5H174.013V119.5H173.959V127.5ZM174.013 127.5H174.067V119.5H174.013V127.5ZM174.067 127.5H174.121V119.5H174.067V127.5ZM174.121 127.5H174.174V119.5H174.121V127.5ZM174.174 127.5H174.227V119.5H174.174V127.5ZM174.227 127.5H174.28V119.5H174.227V127.5ZM174.28 127.5H174.333V119.5H174.28V127.5ZM174.333 127.5H174.385V119.5H174.333V127.5ZM174.385 127.5H174.437V119.5H174.385V127.5ZM174.437 127.5H174.489V119.5H174.437V127.5ZM174.489 127.5H174.54V119.5H174.489V127.5ZM174.54 127.5H174.591V119.5H174.54V127.5ZM174.591 127.5H174.642V119.5H174.591V127.5ZM174.642 127.5H174.693V119.5H174.642V127.5ZM174.693 127.5H174.743V119.5H174.693V127.5ZM174.743 127.5H174.793V119.5H174.743V127.5ZM174.793 127.5H174.843V119.5H174.793V127.5ZM174.843 127.5H174.893V119.5H174.843V127.5ZM174.893 127.5H174.942V119.5H174.893V127.5ZM174.942 127.5H174.991V119.5H174.942V127.5ZM174.991 127.5H175.039V119.5H174.991V127.5ZM175.039 127.5H175.087V119.5H175.039V127.5ZM175.087 127.5H175.135V119.5H175.087V127.5ZM175.135 127.5H175.183V119.5H175.135V127.5ZM175.183 127.5H175.231V119.5H175.183V127.5ZM175.231 127.5H175.278V119.5H175.231V127.5ZM175.278 127.5H175.324V119.5H175.278V127.5ZM175.324 127.5H175.371V119.5H175.324V127.5ZM175.371 127.5H175.417V119.5H175.371V127.5ZM175.417 127.5H175.463V119.5H175.417V127.5ZM175.463 127.5H175.508V119.5H175.463V127.5ZM175.508 127.5H175.554V119.5H175.508V127.5ZM175.554 127.5H175.599V119.5H175.554V127.5ZM175.599 127.5H175.643V119.5H175.599V127.5ZM175.643 127.5H175.688V119.5H175.643V127.5ZM175.688 127.5H175.732V119.5H175.688V127.5ZM175.732 127.5H175.775V119.5H175.732V127.5ZM175.775 127.5H175.819V119.5H175.775V127.5ZM175.819 127.5H175.862V119.5H175.819V127.5ZM175.862 127.5H175.904V119.5H175.862V127.5ZM175.904 127.5H175.947V119.5H175.904V127.5ZM175.947 127.5H175.989V119.5H175.947V127.5ZM175.989 127.5H176.031V119.5H175.989V127.5ZM176.031 127.5H176.072V119.5H176.031V127.5ZM176.072 127.5H176.113V119.5H176.072V127.5ZM176.113 127.5H176.154V119.5H176.113V127.5ZM176.154 127.5H176.195V119.5H176.154V127.5ZM176.195 127.5H176.235V119.5H176.195V127.5ZM176.235 127.5H176.275V119.5H176.235V127.5ZM176.275 127.5H176.314V119.5H176.275V127.5ZM176.314 127.5H176.353V119.5H176.314V127.5ZM176.353 127.5H176.392V119.5H176.353V127.5ZM176.392 127.5H176.431V119.5H176.392V127.5ZM176.431 127.5H176.469V119.5H176.431V127.5ZM176.469 127.5H176.506V119.5H176.469V127.5ZM176.506 127.5H176.544V119.5H176.506V127.5ZM176.544 127.5H176.581V119.5H176.544V127.5ZM176.581 127.5H176.618V119.5H176.581V127.5ZM176.618 127.5H176.654V119.5H176.618V127.5ZM176.654 127.5H176.69V119.5H176.654V127.5ZM176.69 127.5H176.726V119.5H176.69V127.5ZM176.726 127.5H176.762V119.5H176.726V127.5ZM176.762 127.5H176.797V119.5H176.762V127.5ZM176.797 127.5H176.832V119.5H176.797V127.5ZM176.832 127.5H176.866V119.5H176.832V127.5ZM176.866 127.5H176.9V119.5H176.866V127.5ZM176.9 127.5H176.934V119.5H176.9V127.5ZM176.934 127.5H176.967V119.5H176.934V127.5ZM176.967 127.5H177V119.5H176.967V127.5ZM177 127.5C178.952 127.5 180.622 127.188 182.009 126.505L178.474 119.328C178.509 119.311 178.144 119.5 177 119.5V127.5ZM182.009 126.505C183.427 125.807 184.44 124.773 185.126 123.529L178.122 119.664C178.129 119.65 178.176 119.573 178.27 119.481C178.366 119.388 178.449 119.341 178.474 119.328L182.009 126.505ZM185.126 123.529C186.405 121.21 186.497 118.212 186.5 115.588L178.5 115.579C178.497 118.52 178.255 119.423 178.122 119.664L185.126 123.529ZM186.488 115.272C186.473 115.077 186.473 114.889 186.487 114.707L178.511 114.093C178.466 114.68 178.464 115.281 178.512 115.895L186.488 115.272ZM124.601 112.192C126.392 113.588 128.269 114.877 130.225 116.051L134.341 109.191C132.665 108.185 131.055 107.08 129.519 105.883L124.601 112.192ZM136.868 112.629C136.599 111.609 135.981 110.69 135.157 109.839L129.41 115.403C129.525 115.523 129.512 115.53 129.444 115.422C129.378 115.318 129.237 115.064 129.132 114.668L136.868 112.629ZM137 115.963L137 113.649L129 113.649L129 115.962L137 115.963ZM137 120.5L137 115.962L129 115.962L129 120.5L137 120.5ZM137 120.625V120.5H129V120.625H137ZM136.985 120.252L136.969 120.128L129.031 121.121L129.046 121.244L136.985 120.252ZM138.294 122.877C137.757 122.49 137.174 121.769 136.985 120.252L129.046 121.244C129.478 124.698 131.067 127.532 133.619 129.369L138.294 122.877ZM140.5 123.5C139.69 123.5 138.893 123.308 138.294 122.877L133.619 129.369C135.986 131.074 138.594 131.5 140.5 131.5V123.5ZM140.558 123.5H140.5V131.5H140.558V123.5ZM140.616 123.5H140.558V131.5H140.616V123.5ZM140.674 123.5H140.616V131.5H140.674V123.5ZM140.733 123.5H140.674V131.5H140.733V123.5ZM140.791 123.5H140.733V131.5H140.791V123.5ZM140.85 123.5H140.791V131.5H140.85V123.5ZM140.91 123.5H140.85V131.5H140.91V123.5ZM140.969 123.5H140.91V131.5H140.969V123.5ZM141.029 123.5H140.969V131.5H141.029V123.5ZM141.089 123.5H141.029V131.5H141.089V123.5ZM141.149 123.5H141.089V131.5H141.149V123.5ZM141.21 123.5H141.149V131.5H141.21V123.5ZM141.27 123.5H141.21V131.5H141.27V123.5ZM141.331 123.5H141.27V131.5H141.331V123.5ZM141.393 123.5H141.331V131.5H141.393V123.5ZM141.454 123.5H141.393V131.5H141.454V123.5ZM141.516 123.5H141.454V131.5H141.516V123.5ZM141.578 123.5H141.516V131.5H141.578V123.5ZM141.64 123.5H141.578V131.5H141.64V123.5ZM141.702 123.5H141.64V131.5H141.702V123.5ZM141.765 123.5H141.702V131.5H141.765V123.5ZM141.828 123.5H141.765V131.5H141.828V123.5ZM141.891 123.5H141.828V131.5H141.891V123.5ZM141.954 123.5H141.891V131.5H141.954V123.5ZM142.018 123.5H141.954V131.5H142.018V123.5ZM142.081 123.5H142.018V131.5H142.081V123.5ZM142.145 123.5H142.081V131.5H142.145V123.5ZM142.21 123.5H142.145V131.5H142.21V123.5ZM142.274 123.5H142.21V131.5H142.274V123.5ZM142.339 123.5H142.274V131.5H142.339V123.5ZM142.404 123.5H142.339V131.5H142.404V123.5ZM142.469 123.5H142.404V131.5H142.469V123.5ZM142.534 123.5H142.469V131.5H142.534V123.5ZM142.6 123.5H142.534V131.5H142.6V123.5ZM142.666 123.5H142.6V131.5H142.666V123.5ZM142.732 123.5H142.666V131.5H142.732V123.5ZM142.798 123.5H142.732V131.5H142.798V123.5ZM142.864 123.5H142.798V131.5H142.864V123.5ZM142.931 123.5H142.864V131.5H142.931V123.5ZM142.998 123.5H142.931V131.5H142.998V123.5ZM143.065 123.5H142.998V131.5H143.065V123.5ZM143.132 123.5H143.065V131.5H143.132V123.5ZM143.199 123.5H143.132V131.5H143.199V123.5ZM143.267 123.5H143.199V131.5H143.267V123.5ZM143.335 123.5H143.267V131.5H143.335V123.5ZM143.403 123.5H143.335V131.5H143.403V123.5ZM143.471 123.5H143.403V131.5H143.471V123.5ZM143.54 123.5H143.471V131.5H143.54V123.5ZM143.608 123.5H143.54V131.5H143.608V123.5ZM143.677 123.5H143.608V131.5H143.677V123.5ZM143.746 123.5H143.677V131.5H143.746V123.5ZM143.816 123.5H143.746V131.5H143.816V123.5ZM143.885 123.5H143.816V131.5H143.885V123.5ZM143.955 123.5H143.885V131.5H143.955V123.5ZM144.025 123.5H143.955V131.5H144.025V123.5ZM144.095 123.5H144.025V131.5H144.095V123.5ZM144.165 123.5H144.095V131.5H144.165V123.5ZM144.235 123.5H144.165V131.5H144.235V123.5ZM144.306 123.5H144.235V131.5H144.306V123.5ZM144.377 123.5H144.306V131.5H144.377V123.5ZM144.448 123.5H144.377V131.5H144.448V123.5ZM144.519 123.5H144.448V131.5H144.519V123.5ZM144.59 123.5H144.519V131.5H144.59V123.5ZM144.662 123.5H144.59V131.5H144.662V123.5ZM144.734 123.5H144.662V131.5H144.734V123.5ZM144.806 123.5H144.734V131.5H144.806V123.5ZM144.878 123.5H144.806V131.5H144.878V123.5ZM144.95 123.5H144.878V131.5H144.95V123.5ZM145.022 123.5H144.95V131.5H145.022V123.5ZM145.095 123.5H145.022V131.5H145.095V123.5ZM145.168 123.5H145.095V131.5H145.168V123.5ZM145.241 123.5H145.168V131.5H145.241V123.5ZM145.314 123.5H145.241V131.5H145.314V123.5ZM145.387 123.5H145.314V131.5H145.387V123.5ZM145.46 123.5H145.387V131.5H145.46V123.5ZM145.534 123.5H145.46V131.5H145.534V123.5ZM145.608 123.5H145.534V131.5H145.608V123.5ZM145.682 123.5H145.608V131.5H145.682V123.5ZM145.756 123.5H145.682V131.5H145.756V123.5ZM145.83 123.5H145.756V131.5H145.83V123.5ZM145.905 123.5H145.83V131.5H145.905V123.5ZM145.979 123.5H145.905V131.5H145.979V123.5ZM146.054 123.5H145.979V131.5H146.054V123.5ZM146.129 123.5H146.054V131.5H146.129V123.5ZM146.204 123.5H146.129V131.5H146.204V123.5ZM146.279 123.5H146.204V131.5H146.279V123.5ZM146.355 123.5H146.279V131.5H146.355V123.5ZM146.43 123.5H146.355V131.5H146.43V123.5ZM146.506 123.5H146.43V131.5H146.506V123.5ZM146.582 123.5H146.506V131.5H146.582V123.5ZM146.658 123.5H146.582V131.5H146.658V123.5ZM146.734 123.5H146.658V131.5H146.734V123.5ZM146.81 123.5H146.734V131.5H146.81V123.5ZM146.887 123.5H146.81V131.5H146.887V123.5ZM146.963 123.5H146.887V131.5H146.963V123.5ZM147.04 123.5H146.963V131.5H147.04V123.5ZM147.117 123.5H147.04V131.5H147.117V123.5ZM147.194 123.5H147.117V131.5H147.194V123.5ZM147.271 123.5H147.194V131.5H147.271V123.5ZM147.348 123.5H147.271V131.5H147.348V123.5ZM147.426 123.5H147.348V131.5H147.426V123.5ZM147.503 123.5H147.426V131.5H147.503V123.5ZM147.581 123.5H147.503V131.5H147.581V123.5ZM147.659 123.5H147.581V131.5H147.659V123.5ZM147.737 123.5H147.659V131.5H147.737V123.5ZM147.815 123.5H147.737V131.5H147.815V123.5ZM147.893 123.5H147.815V131.5H147.893V123.5ZM147.972 123.5H147.893V131.5H147.972V123.5ZM148.05 123.5H147.972V131.5H148.05V123.5ZM148.129 123.5H148.05V131.5H148.129V123.5ZM148.207 123.5H148.129V131.5H148.207V123.5ZM148.286 123.5H148.207V131.5H148.286V123.5ZM148.365 123.5H148.286V131.5H148.365V123.5ZM148.444 123.5H148.365V131.5H148.444V123.5ZM148.524 123.5H148.444V131.5H148.524V123.5ZM148.603 123.5H148.524V131.5H148.603V123.5ZM148.682 123.5H148.603V131.5H148.682V123.5ZM148.762 123.5H148.682V131.5H148.762V123.5ZM148.842 123.5H148.762V131.5H148.842V123.5ZM148.922 123.5H148.842V131.5H148.922V123.5ZM149.001 123.5H148.922V131.5H149.001V123.5ZM149.081 123.5H149.001V131.5H149.081V123.5ZM149.162 123.5H149.081V131.5H149.162V123.5ZM149.242 123.5H149.162V131.5H149.242V123.5ZM149.322 123.5H149.242V131.5H149.322V123.5ZM149.403 123.5H149.322V131.5H149.403V123.5ZM149.483 123.5H149.403V131.5H149.483V123.5ZM149.564 123.5H149.483V131.5H149.564V123.5ZM149.645 123.5H149.564V131.5H149.645V123.5ZM149.726 123.5H149.645V131.5H149.726V123.5ZM149.807 123.5H149.726V131.5H149.807V123.5ZM149.888 123.5H149.807V131.5H149.888V123.5ZM149.969 123.5H149.888V131.5H149.969V123.5ZM150.05 123.5H149.969V131.5H150.05V123.5ZM150.132 123.5H150.05V131.5H150.132V123.5ZM150.213 123.5H150.132V131.5H150.213V123.5ZM150.295 123.5H150.213V131.5H150.295V123.5ZM150.377 123.5H150.295V131.5H150.377V123.5ZM150.458 123.5H150.377V131.5H150.458V123.5ZM150.54 123.5H150.458V131.5H150.54V123.5ZM150.622 123.5H150.54V131.5H150.622V123.5ZM150.704 123.5H150.622V131.5H150.704V123.5ZM150.786 123.5H150.704V131.5H150.786V123.5ZM150.869 123.5H150.786V131.5H150.869V123.5ZM150.951 123.5H150.869V131.5H150.951V123.5ZM151.033 123.5H150.951V131.5H151.033V123.5ZM151.116 123.5H151.033V131.5H151.116V123.5ZM151.198 123.5H151.116V131.5H151.198V123.5ZM151.281 123.5H151.198V131.5H151.281V123.5ZM151.364 123.5H151.281V131.5H151.364V123.5ZM151.446 123.5H151.364V131.5H151.446V123.5ZM151.529 123.5H151.446V131.5H151.529V123.5ZM151.612 123.5H151.529V131.5H151.612V123.5ZM151.695 123.5H151.612V131.5H151.695V123.5ZM151.778 123.5H151.695V131.5H151.778V123.5ZM151.862 123.5H151.778V131.5H151.862V123.5ZM151.945 123.5H151.862V131.5H151.945V123.5ZM152.028 123.5H151.945V131.5H152.028V123.5ZM152.112 123.5H152.028V131.5H152.112V123.5ZM152.195 123.5H152.112V131.5H152.195V123.5ZM152.278 123.5H152.195V131.5H152.278V123.5ZM152.362 123.5H152.278V131.5H152.362V123.5ZM152.446 123.5H152.362V131.5H152.446V123.5ZM152.529 123.5H152.446V131.5H152.529V123.5ZM152.613 123.5H152.529V131.5H152.613V123.5ZM152.697 123.5H152.613V131.5H152.697V123.5ZM152.781 123.5H152.697V131.5H152.781V123.5ZM152.865 123.5H152.781V131.5H152.865V123.5ZM152.949 123.5H152.865V131.5H152.949V123.5ZM153.033 123.5H152.949V131.5H153.033V123.5ZM153.117 123.5H153.033V131.5H153.117V123.5ZM153.201 123.5H153.117V131.5H153.201V123.5ZM153.285 123.5H153.201V131.5H153.285V123.5ZM153.37 123.5H153.285V131.5H153.37V123.5ZM153.454 123.5H153.37V131.5H153.454V123.5ZM153.538 123.5H153.454V131.5H153.538V123.5ZM153.623 123.5H153.538V131.5H153.623V123.5ZM153.707 123.5H153.623V131.5H153.707V123.5ZM153.792 123.5H153.707V131.5H153.792V123.5ZM153.876 123.5H153.792V131.5H153.876V123.5ZM153.961 123.5H153.876V131.5H153.961V123.5ZM154.045 123.5H153.961V131.5H154.045V123.5ZM154.13 123.5H154.045V131.5H154.13V123.5ZM154.215 123.5H154.13V131.5H154.215V123.5ZM154.299 123.5H154.215V131.5H154.299V123.5ZM154.384 123.5H154.299V131.5H154.384V123.5ZM154.469 123.5H154.384V131.5H154.469V123.5ZM154.554 123.5H154.469V131.5H154.554V123.5ZM154.639 123.5H154.554V131.5H154.639V123.5ZM154.724 123.5H154.639V131.5H154.724V123.5ZM154.809 123.5H154.724V131.5H154.809V123.5ZM154.894 123.5H154.809V131.5H154.894V123.5ZM154.979 123.5H154.894V131.5H154.979V123.5ZM155.064 123.5H154.979V131.5H155.064V123.5ZM155.149 123.5H155.064V131.5H155.149V123.5ZM155.234 123.5H155.149V131.5H155.234V123.5ZM155.319 123.5H155.234V131.5H155.319V123.5ZM155.404 123.5H155.319V131.5H155.404V123.5ZM155.489 123.5H155.404V131.5H155.489V123.5ZM155.574 123.5H155.489V131.5H155.574V123.5ZM155.659 123.5H155.574V131.5H155.659V123.5ZM155.745 123.5H155.659V131.5H155.745V123.5ZM155.83 123.5H155.745V131.5H155.83V123.5ZM155.915 123.5H155.83V131.5H155.915V123.5ZM156 123.5H155.915V131.5H156V123.5ZM156.086 123.5H156V131.5H156.086V123.5ZM156.171 123.5H156.086V131.5H156.171V123.5ZM156.256 123.5H156.171V131.5H156.256V123.5ZM156.341 123.5H156.256V131.5H156.341V123.5ZM156.427 123.5H156.341V131.5H156.427V123.5ZM156.512 123.5H156.427V131.5H156.512V123.5ZM156.597 123.5H156.512V131.5H156.597V123.5ZM156.683 123.5H156.597V131.5H156.683V123.5ZM156.768 123.5H156.683V131.5H156.768V123.5ZM156.853 123.5H156.768V131.5H156.853V123.5ZM156.938 123.5H156.853V131.5H156.938V123.5ZM157.024 123.5H156.938V131.5H157.024V123.5ZM157.109 123.5H157.024V131.5H157.109V123.5ZM157.194 123.5H157.109V131.5H157.194V123.5ZM157.28 123.5H157.194V131.5H157.28V123.5ZM157.365 123.5H157.28V131.5H157.365V123.5ZM157.45 123.5H157.365V131.5H157.45V123.5ZM157.536 123.5H157.45V131.5H157.536V123.5ZM157.621 123.5H157.536V131.5H157.621V123.5ZM157.706 123.5H157.621V131.5H157.706V123.5ZM157.791 123.5H157.706V131.5H157.791V123.5ZM157.877 123.5H157.791V131.5H157.877V123.5ZM157.962 123.5H157.877V131.5H157.962V123.5ZM158.047 123.5H157.962V131.5H158.047V123.5ZM158.132 123.5H158.047V131.5H158.132V123.5ZM158.217 123.5H158.132V131.5H158.217V123.5ZM158.302 123.5H158.217V131.5H158.302V123.5ZM158.388 123.5H158.302V131.5H158.388V123.5ZM158.473 123.5H158.388V131.5H158.473V123.5ZM158.558 123.5H158.473V131.5H158.558V123.5ZM158.643 123.5H158.558V131.5H158.643V123.5ZM158.728 123.5H158.643V131.5H158.728V123.5ZM158.813 123.5H158.728V131.5H158.813V123.5ZM158.898 123.5H158.813V131.5H158.898V123.5ZM158.983 123.5H158.898V131.5H158.983V123.5ZM159.068 123.5H158.983V131.5H159.068V123.5ZM159.153 123.5H159.068V131.5H159.153V123.5ZM159.238 123.5H159.153V131.5H159.238V123.5ZM159.322 123.5H159.238V131.5H159.322V123.5ZM159.407 123.5H159.322V131.5H159.407V123.5ZM159.492 123.5H159.407V131.5H159.492V123.5ZM159.577 123.5H159.492V131.5H159.577V123.5ZM159.661 123.5H159.577V131.5H159.661V123.5ZM159.746 123.5H159.661V131.5H159.746V123.5ZM159.831 123.5H159.746V131.5H159.831V123.5ZM159.915 123.5H159.831V131.5H159.915V123.5ZM160 123.5H159.915V131.5H160V123.5ZM160.084 123.5H160V131.5H160.084V123.5ZM160.169 123.5H160.084V131.5H160.169V123.5ZM160.253 123.5H160.169V131.5H160.253V123.5ZM160.338 123.5H160.253V131.5H160.338V123.5ZM160.422 123.5H160.338V131.5H160.422V123.5ZM160.506 123.5H160.422V131.5H160.506V123.5ZM160.59 123.5H160.506V131.5H160.59V123.5ZM160.674 123.5H160.59V131.5H160.674V123.5ZM160.759 123.5H160.674V131.5H160.759V123.5ZM160.843 123.5H160.759V131.5H160.843V123.5ZM160.927 123.5H160.843V131.5H160.927V123.5ZM161.01 123.5H160.927V131.5H161.01V123.5ZM161.094 123.5H161.01V131.5H161.094V123.5ZM161.178 123.5H161.094V131.5H161.178V123.5ZM161.262 123.5H161.178V131.5H161.262V123.5ZM161.346 123.5H161.262V131.5H161.346V123.5ZM161.429 123.5H161.346V131.5H161.429V123.5ZM161.513 123.5H161.429V131.5H161.513V123.5ZM161.596 123.5H161.513V131.5H161.596V123.5ZM161.68 123.5H161.596V131.5H161.68V123.5ZM161.763 123.5H161.68V131.5H161.763V123.5ZM161.846 123.5H161.763V131.5H161.846V123.5ZM161.93 123.5H161.846V131.5H161.93V123.5ZM162.013 123.5H161.93V131.5H162.013V123.5ZM162.096 123.5H162.013V131.5H162.096V123.5ZM162.179 123.5H162.096V131.5H162.179V123.5ZM162.262 123.5H162.179V131.5H162.262V123.5ZM162.345 123.5H162.262V131.5H162.345V123.5ZM162.427 123.5H162.345V131.5H162.427V123.5ZM162.51 123.5H162.427V131.5H162.51V123.5ZM162.593 123.5H162.51V131.5H162.593V123.5ZM162.675 123.5H162.593V131.5H162.675V123.5ZM162.758 123.5H162.675V131.5H162.758V123.5ZM162.84 123.5H162.758V131.5H162.84V123.5ZM162.922 123.5H162.84V131.5H162.922V123.5ZM163.005 123.5H162.922V131.5H163.005V123.5ZM163.087 123.5H163.005V131.5H163.087V123.5ZM163.169 123.5H163.087V131.5H163.169V123.5ZM163.251 123.5H163.169V131.5H163.251V123.5ZM163.333 123.5H163.251V131.5H163.333V123.5ZM163.414 123.5H163.333V131.5H163.414V123.5ZM163.496 123.5H163.414V131.5H163.496V123.5ZM163.578 123.5H163.496V131.5H163.578V123.5ZM163.659 123.5H163.578V131.5H163.659V123.5ZM163.74 123.5H163.659V131.5H163.74V123.5ZM163.822 123.5H163.74V131.5H163.822V123.5ZM163.903 123.5H163.822V131.5H163.903V123.5ZM163.984 123.5H163.903V131.5H163.984V123.5ZM164.065 123.5H163.984V131.5H164.065V123.5ZM164.146 123.5H164.065V131.5H164.146V123.5ZM164.227 123.5H164.146V131.5H164.227V123.5ZM164.307 123.5H164.227V131.5H164.307V123.5ZM164.388 123.5H164.307V131.5H164.388V123.5ZM164.468 123.5H164.388V131.5H164.468V123.5ZM164.549 123.5H164.468V131.5H164.549V123.5ZM164.629 123.5H164.549V131.5H164.629V123.5ZM164.709 123.5H164.629V131.5H164.709V123.5ZM164.789 123.5H164.709V131.5H164.789V123.5ZM164.869 123.5H164.789V131.5H164.869V123.5ZM164.949 123.5H164.869V131.5H164.949V123.5ZM165.029 123.5H164.949V131.5H165.029V123.5ZM165.108 123.5H165.029V131.5H165.108V123.5ZM165.188 123.5H165.108V131.5H165.188V123.5ZM165.267 123.5H165.188V131.5H165.267V123.5ZM165.346 123.5H165.267V131.5H165.346V123.5ZM165.425 123.5H165.346V131.5H165.425V123.5ZM165.504 123.5H165.425V131.5H165.504V123.5ZM165.583 123.5H165.504V131.5H165.583V123.5ZM165.662 123.5H165.583V131.5H165.662V123.5ZM165.74 123.5H165.662V131.5H165.74V123.5ZM165.819 123.5H165.74V131.5H165.819V123.5ZM165.897 123.5H165.819V131.5H165.897V123.5ZM165.975 123.5H165.897V131.5H165.975V123.5ZM166.053 123.5H165.975V131.5H166.053V123.5ZM166.131 123.5H166.053V131.5H166.131V123.5ZM166.209 123.5H166.131V131.5H166.209V123.5ZM166.287 123.5H166.209V131.5H166.287V123.5ZM166.364 123.5H166.287V131.5H166.364V123.5ZM166.442 123.5H166.364V131.5H166.442V123.5ZM166.519 123.5H166.442V131.5H166.519V123.5ZM166.596 123.5H166.519V131.5H166.596V123.5ZM166.673 123.5H166.596V131.5H166.673V123.5ZM166.75 123.5H166.673V131.5H166.75V123.5ZM166.827 123.5H166.75V131.5H166.827V123.5ZM166.903 123.5H166.827V131.5H166.903V123.5ZM166.98 123.5H166.903V131.5H166.98V123.5ZM167.056 123.5H166.98V131.5H167.056V123.5ZM167.132 123.5H167.056V131.5H167.132V123.5ZM167.208 123.5H167.132V131.5H167.208V123.5ZM167.284 123.5H167.208V131.5H167.284V123.5ZM167.36 123.5H167.284V131.5H167.36V123.5ZM167.435 123.5H167.36V131.5H167.435V123.5ZM167.51 123.5H167.435V131.5H167.51V123.5ZM167.586 123.5H167.51V131.5H167.586V123.5ZM167.661 123.5H167.586V131.5H167.661V123.5ZM167.736 123.5H167.661V131.5H167.736V123.5ZM167.81 123.5H167.736V131.5H167.81V123.5ZM167.885 123.5H167.81V131.5H167.885V123.5ZM167.959 123.5H167.885V131.5H167.959V123.5ZM168.034 123.5H167.959V131.5H168.034V123.5ZM168.108 123.5H168.034V131.5H168.108V123.5ZM168.182 123.5H168.108V131.5H168.182V123.5ZM168.255 123.5H168.182V131.5H168.255V123.5ZM168.329 123.5H168.255V131.5H168.329V123.5ZM168.402 123.5H168.329V131.5H168.402V123.5ZM168.476 123.5H168.402V131.5H168.476V123.5ZM168.549 123.5H168.476V131.5H168.549V123.5ZM168.622 123.5H168.549V131.5H168.622V123.5ZM168.694 123.5H168.622V131.5H168.694V123.5ZM168.767 123.5H168.694V131.5H168.767V123.5ZM168.839 123.5H168.767V131.5H168.839V123.5ZM168.912 123.5H168.839V131.5H168.912V123.5ZM168.984 123.5H168.912V131.5H168.984V123.5ZM169.056 123.5H168.984V131.5H169.056V123.5ZM169.127 123.5H169.056V131.5H169.127V123.5ZM169.199 123.5H169.127V131.5H169.199V123.5ZM169.27 123.5H169.199V131.5H169.27V123.5ZM169.341 123.5H169.27V131.5H169.341V123.5ZM169.412 123.5H169.341V131.5H169.412V123.5ZM169.483 123.5H169.412V131.5H169.483V123.5ZM169.553 123.5H169.483V131.5H169.553V123.5ZM169.624 123.5H169.553V131.5H169.624V123.5ZM169.694 123.5H169.624V131.5H169.694V123.5ZM169.764 123.5H169.694V131.5H169.764V123.5ZM169.834 123.5H169.764V131.5H169.834V123.5ZM169.904 123.5H169.834V131.5H169.904V123.5ZM169.973 123.5H169.904V131.5H169.973V123.5ZM170.042 123.5H169.973V131.5H170.042V123.5ZM170.111 123.5H170.042V131.5H170.111V123.5ZM170.18 123.5H170.111V131.5H170.18V123.5ZM170.249 123.5H170.18V131.5H170.249V123.5ZM170.317 123.5H170.249V131.5H170.317V123.5ZM170.385 123.5H170.317V131.5H170.385V123.5ZM170.453 123.5H170.385V131.5H170.453V123.5ZM170.521 123.5H170.453V131.5H170.521V123.5ZM170.589 123.5H170.521V131.5H170.589V123.5ZM170.656 123.5H170.589V131.5H170.656V123.5ZM170.724 123.5H170.656V131.5H170.724V123.5ZM170.791 123.5H170.724V131.5H170.791V123.5ZM170.857 123.5H170.791V131.5H170.857V123.5ZM170.924 123.5H170.857V131.5H170.924V123.5ZM170.99 123.5H170.924V131.5H170.99V123.5ZM171.057 123.5H170.99V131.5H171.057V123.5ZM171.123 123.5H171.057V131.5H171.123V123.5ZM171.188 123.5H171.123V131.5H171.188V123.5ZM171.254 123.5H171.188V131.5H171.254V123.5ZM171.319 123.5H171.254V131.5H171.319V123.5ZM171.384 123.5H171.319V131.5H171.384V123.5ZM171.449 123.5H171.384V131.5H171.449V123.5ZM171.514 123.5H171.449V131.5H171.514V123.5ZM171.578 123.5H171.514V131.5H171.578V123.5ZM171.642 123.5H171.578V131.5H171.642V123.5ZM171.706 123.5H171.642V131.5H171.706V123.5ZM171.77 123.5H171.706V131.5H171.77V123.5ZM171.834 123.5H171.77V131.5H171.834V123.5ZM171.897 123.5H171.834V131.5H171.897V123.5ZM171.96 123.5H171.897V131.5H171.96V123.5ZM172.023 123.5H171.96V131.5H172.023V123.5ZM172.085 123.5H172.023V131.5H172.085V123.5ZM172.148 123.5H172.085V131.5H172.148V123.5ZM172.21 123.5H172.148V131.5H172.21V123.5ZM172.272 123.5H172.21V131.5H172.272V123.5ZM172.333 123.5H172.272V131.5H172.333V123.5ZM172.395 123.5H172.333V131.5H172.395V123.5ZM172.456 123.5H172.395V131.5H172.456V123.5ZM172.517 123.5H172.456V131.5H172.517V123.5ZM172.578 123.5H172.517V131.5H172.578V123.5ZM172.638 123.5H172.578V131.5H172.638V123.5ZM172.698 123.5H172.638V131.5H172.698V123.5ZM172.758 123.5H172.698V131.5H172.758V123.5ZM172.818 123.5H172.758V131.5H172.818V123.5ZM172.877 123.5H172.818V131.5H172.877V123.5ZM172.937 123.5H172.877V131.5H172.937V123.5ZM172.996 123.5H172.937V131.5H172.996V123.5ZM173.054 123.5H172.996V131.5H173.054V123.5ZM173.113 123.5H173.054V131.5H173.113V123.5ZM173.171 123.5H173.113V131.5H173.171V123.5ZM173.229 123.5H173.171V131.5H173.229V123.5ZM173.287 123.5H173.229V131.5H173.287V123.5ZM173.344 123.5H173.287V131.5H173.344V123.5ZM173.401 123.5H173.344V131.5H173.401V123.5ZM173.458 123.5H173.401V131.5H173.458V123.5ZM173.515 123.5H173.458V131.5H173.515V123.5ZM173.571 123.5H173.515V131.5H173.571V123.5ZM173.627 123.5H173.571V131.5H173.627V123.5ZM173.683 123.5H173.627V131.5H173.683V123.5ZM173.739 123.5H173.683V131.5H173.739V123.5ZM173.794 123.5H173.739V131.5H173.794V123.5ZM173.849 123.5H173.794V131.5H173.849V123.5ZM173.904 123.5H173.849V131.5H173.904V123.5ZM173.959 123.5H173.904V131.5H173.959V123.5ZM174.013 123.5H173.959V131.5H174.013V123.5ZM174.067 123.5H174.013V131.5H174.067V123.5ZM174.121 123.5H174.067V131.5H174.121V123.5ZM174.174 123.5H174.121V131.5H174.174V123.5ZM174.227 123.5H174.174V131.5H174.227V123.5ZM174.28 123.5H174.227V131.5H174.28V123.5ZM174.333 123.5H174.28V131.5H174.333V123.5ZM174.385 123.5H174.333V131.5H174.385V123.5ZM174.437 123.5H174.385V131.5H174.437V123.5ZM174.489 123.5H174.437V131.5H174.489V123.5ZM174.54 123.5H174.489V131.5H174.54V123.5ZM174.591 123.5H174.54V131.5H174.591V123.5ZM174.642 123.5H174.591V131.5H174.642V123.5ZM174.693 123.5H174.642V131.5H174.693V123.5ZM174.743 123.5H174.693V131.5H174.743V123.5ZM174.793 123.5H174.743V131.5H174.793V123.5ZM174.843 123.5H174.793V131.5H174.843V123.5ZM174.893 123.5H174.843V131.5H174.893V123.5ZM174.942 123.5H174.893V131.5H174.942V123.5ZM174.991 123.5H174.942V131.5H174.991V123.5ZM175.039 123.5H174.991V131.5H175.039V123.5ZM175.087 123.5H175.039V131.5H175.087V123.5ZM175.135 123.5H175.087V131.5H175.135V123.5ZM175.183 123.5H175.135V131.5H175.183V123.5ZM175.231 123.5H175.183V131.5H175.231V123.5ZM175.278 123.5H175.231V131.5H175.278V123.5ZM175.324 123.5H175.278V131.5H175.324V123.5ZM175.371 123.5H175.324V131.5H175.371V123.5ZM175.417 123.5H175.371V131.5H175.417V123.5ZM175.463 123.5H175.417V131.5H175.463V123.5ZM175.508 123.5H175.463V131.5H175.508V123.5ZM175.554 123.5H175.508V131.5H175.554V123.5ZM175.599 123.5H175.554V131.5H175.599V123.5ZM175.643 123.5H175.599V131.5H175.643V123.5ZM175.688 123.5H175.643V131.5H175.688V123.5ZM175.732 123.5H175.688V131.5H175.732V123.5ZM175.775 123.5H175.732V131.5H175.775V123.5ZM175.819 123.5H175.775V131.5H175.819V123.5ZM175.862 123.5H175.819V131.5H175.862V123.5ZM175.904 123.5H175.862V131.5H175.904V123.5ZM175.947 123.5H175.904V131.5H175.947V123.5ZM175.989 123.5H175.947V131.5H175.989V123.5ZM176.031 123.5H175.989V131.5H176.031V123.5ZM176.072 123.5H176.031V131.5H176.072V123.5ZM176.113 123.5H176.072V131.5H176.113V123.5ZM176.154 123.5H176.113V131.5H176.154V123.5ZM176.195 123.5H176.154V131.5H176.195V123.5ZM176.235 123.5H176.195V131.5H176.235V123.5ZM176.275 123.5H176.235V131.5H176.275V123.5ZM176.314 123.5H176.275V131.5H176.314V123.5ZM176.353 123.5H176.314V131.5H176.353V123.5ZM176.392 123.5H176.353V131.5H176.392V123.5ZM176.431 123.5H176.392V131.5H176.431V123.5ZM176.469 123.5H176.431V131.5H176.469V123.5ZM176.506 123.5H176.469V131.5H176.506V123.5ZM176.544 123.5H176.506V131.5H176.544V123.5ZM176.581 123.5H176.544V131.5H176.581V123.5ZM176.618 123.5H176.581V131.5H176.618V123.5ZM176.654 123.5H176.618V131.5H176.654V123.5ZM176.69 123.5H176.654V131.5H176.69V123.5ZM176.726 123.5H176.69V131.5H176.726V123.5ZM176.762 123.5H176.726V131.5H176.762V123.5ZM176.797 123.5H176.762V131.5H176.797V123.5ZM176.832 123.5H176.797V131.5H176.832V123.5ZM176.866 123.5H176.832V131.5H176.866V123.5ZM176.9 123.5H176.866V131.5H176.9V123.5ZM176.934 123.5H176.9V131.5H176.934V123.5ZM176.967 123.5H176.934V131.5H176.967V123.5ZM177 123.5H176.967V131.5H177V123.5ZM180.241 122.917C179.566 123.249 178.549 123.5 177 123.5V131.5C179.355 131.5 181.678 131.127 183.776 130.094L180.241 122.917ZM181.624 121.596C181.309 122.166 180.884 122.6 180.241 122.917L183.776 130.094C185.973 129.012 187.571 127.378 188.628 125.461L181.624 121.596ZM182.5 115.5C182.5 118.316 182.339 120.3 181.624 121.596L188.628 125.461C190.487 122.093 190.5 118.03 190.5 115.5H182.5ZM182.5 115.409V115.5H190.5V115.409H182.5ZM182.508 115.681L182.516 115.771L190.484 115.047L190.475 114.957L182.508 115.681ZM185.468 108.405C183.787 110.161 182.234 112.663 182.508 115.681L190.475 114.957C190.487 115.08 190.445 115.082 190.525 114.908C190.613 114.716 190.819 114.384 191.247 113.936L185.468 108.405ZM187.008 106.994C186.492 107.411 185.968 107.882 185.468 108.405L191.247 113.936C191.481 113.692 191.749 113.448 192.039 113.213L187.008 106.994ZM191.874 113.34C192.219 113.09 192.561 112.835 192.899 112.577L188.053 106.213C187.762 106.434 187.469 106.652 187.173 106.867L191.874 113.34ZM190.654 104.688C189.919 105.031 189.071 105.51 188.218 106.094L192.734 112.697C193.253 112.342 193.723 112.084 194.037 111.937L190.654 104.688ZM188.583 109.709L188.721 110.004L195.971 106.621L195.833 106.326L188.583 109.709ZM194.764 111.094C207.121 100.828 215 85.3324 215 68H207C207 82.8538 200.258 96.1294 189.652 104.94L194.764 111.094ZM215 68C215 37.0721 189.928 12 159 12V20C185.51 20 207 41.4903 207 68H215ZM159 12C128.072 12 103 37.0721 103 68H111C111 41.4903 132.49 20 159 20V12ZM103 68C103 85.7355 111.249 101.547 124.104 111.801L129.093 105.547C118.059 96.7454 111 83.1984 111 68H103ZM130.074 110.657L130.121 110.57L123.077 106.778L123.03 106.865L130.074 110.657ZM128.989 105.534C128.813 105.436 128.632 105.338 128.448 105.239L124.656 112.283C124.818 112.37 124.976 112.457 125.131 112.541L128.989 105.534Z" fill="black" mask="url(#path-1-inside-1_74_38)"/>
<path d="M176 124H142.005C141.451 124 141.002 124.451 141.005 125.005L141.498 221.589C141.499 221.852 141.603 222.103 141.789 222.289C143.924 224.414 148.327 228.709 151 231C155.936 236.43 158.923 236.499 162.367 235.057C162.455 235.02 162.537 234.969 162.611 234.908L176.638 223.3C176.867 223.11 177 222.828 177 222.53V209C177 208.685 176.852 208.389 176.6 208.2L166.131 200.348C165.579 199.934 165.602 199.099 166.176 198.716L176.555 191.797C176.833 191.611 177 191.299 177 190.965V181C177 180.448 176.552 180 176 180H166C165.448 180 165 179.552 165 179V167.5C165 166.948 165.448 166.5 166 166.5H176C176.552 166.5 177 166.052 177 165.5V154C177 153.448 176.552 153 176 153H166C165.448 153 165 152.552 165 152V141C165 140.448 165.447 140 165.999 140H171.838C171.945 140 172.054 140.019 172.157 140.05C175.636 141.131 176.836 138.814 177 137.5V125C177 124.448 176.552 124 176 124Z" stroke="black" stroke-width="4"/>
<path d="M120.807 31.1052L122.412 32.2982L124.798 29.0879L123.193 27.8948L120.807 31.1052ZM116.5 113.5C117.605 113.5 118.5 112.605 118.5 111.5C118.5 110.395 117.605 109.5 116.5 109.5V113.5ZM112.205 111.805L113.644 113.195L112.205 111.805ZM97.7904 125.445L99.022 123.87L97.7904 125.445ZM99.1256 125.352L97.6868 123.963L99.1256 125.352ZM55.6028 91.2138L54.0156 89.9969L55.6028 91.2138ZM55.7806 92.6101L54.5489 94.1859L55.7806 92.6101ZM66.0986 76.4037L67.7578 75.2869L66.0986 76.4037ZM66.0626 77.5705L67.6499 78.7873L66.0626 77.5705ZM49.4165 50.4331L51.0283 51.6173L49.4165 50.4331ZM49.3928 51.5836L51.052 50.4668L49.3928 51.5836ZM85.807 2.59983L84.614 4.20502L85.807 2.59983ZM84.4046 2.81035L86.0164 3.9945L84.4046 2.81035ZM123.193 27.8948L87.0001 0.994641L84.614 4.20502L120.807 31.1052L123.193 27.8948ZM82.7929 1.6262L47.8047 49.249L51.0283 51.6173L86.0164 3.9945L82.7929 1.6262ZM47.7336 52.7003L64.4394 77.5204L67.7578 75.2869L51.052 50.4668L47.7336 52.7003ZM64.4754 76.3536L54.0156 89.9969L57.19 92.4306L67.6499 78.7873L64.4754 76.3536ZM54.5489 94.1859L96.5587 127.021L99.022 123.87L57.0122 91.0343L54.5489 94.1859ZM100.564 126.741L113.644 113.195L110.766 110.416L97.6868 123.963L100.564 126.741ZM112.925 113.5H116.5V109.5H112.925V113.5ZM113.644 113.195C113.455 113.39 113.196 113.5 112.925 113.5V109.5C112.111 109.5 111.332 109.831 110.766 110.416L113.644 113.195ZM96.5587 127.021C97.7688 127.967 99.4976 127.846 100.564 126.741L97.6868 123.963C98.0424 123.595 98.6187 123.554 99.022 123.87L96.5587 127.021ZM54.0156 89.9969C53.0141 91.3031 53.2521 93.1723 54.5489 94.1859L57.0122 91.0343C57.4445 91.3722 57.5238 91.9952 57.19 92.4306L54.0156 89.9969ZM64.4394 77.5204C64.1996 77.1641 64.2141 76.6945 64.4754 76.3536L67.6499 78.7873C68.4338 77.7648 68.4773 76.3558 67.7578 75.2869L64.4394 77.5204ZM47.8047 49.249C47.0552 50.2692 47.0267 51.6501 47.7336 52.7003L51.052 50.4668C51.2876 50.8169 51.2781 51.2772 51.0283 51.6173L47.8047 49.249ZM87.0001 0.994641C85.6651 0.00242379 83.7777 0.285742 82.7929 1.6262L86.0164 3.9945C85.6881 4.44132 85.059 4.53576 84.614 4.20502L87.0001 0.994641Z" fill="black"/>
<path d="M62 99L2.27596 178.632C2.10081 178.866 2.03645 179.164 2.09977 179.449L6.82598 200.717C6.92766 201.174 7.33347 201.5 7.80217 201.5H29.5076C29.8181 201.5 30.1109 201.356 30.3002 201.11L39.6758 188.921C39.8785 188.658 39.937 188.311 39.8318 187.996L35.9387 176.316C35.7229 175.669 36.2049 175 36.8874 175H49C49.3148 175 49.6111 174.852 49.8 174.6L54.9497 167.734C55.261 167.319 55.2032 166.734 54.8165 166.388L46.7678 159.187C46.3475 158.811 46.3212 158.162 46.7096 157.753L54.8389 149.196C55.2083 148.807 55.8187 148.779 56.2224 149.132L62.7397 154.835C63.1583 155.201 63.7954 155.155 64.1575 154.733L71.8798 145.724C72.2271 145.318 72.1951 144.712 71.8072 144.346L64.1832 137.145C63.7992 136.783 63.7635 136.184 64.1016 135.778L70.3861 128.237C70.7292 127.825 71.336 127.757 71.7618 128.083L78.8045 133.468C79.2027 133.773 79.7647 133.735 80.1191 133.381L86 127.5" stroke="black" stroke-width="4"/>
<path d="M4.04125 182.049L5.22782 192.99C5.3255 193.891 6.47011 194.214 7.0154 193.49C24.8634 169.81 58.724 124.507 57.9877 122.973C57.2689 121.476 51.3783 121.044 48.0801 121.003C47.758 120.999 47.4577 121.155 47.2698 121.417L4.22317 181.358C4.07947 181.558 4.01469 181.804 4.04125 182.049Z" fill="black" stroke="black" stroke-width="4"/>
<path d="M144.166 223.219L151.689 231.251C152.308 231.913 153.417 231.483 153.418 230.577C153.456 200.924 153.3 144.365 151.79 143.581C150.315 142.816 145.347 146.011 142.686 147.96C142.427 148.151 142.28 148.456 142.287 148.778L143.896 222.557C143.902 222.803 143.998 223.039 144.166 223.219Z" fill="black" stroke="black" stroke-width="4"/>
<path d="M54.808 127.731L71.1917 105.269" stroke="black" stroke-width="4"/>
<path d="M87 15L61 51" stroke="black" stroke-width="4" stroke-linecap="round"/>
<path d="M109 73L93.8254 61.619C93.3738 61.2803 93.2919 60.6352 93.6445 60.1943L102.525 49.0942C102.806 48.7431 103.286 48.6214 103.695 48.8081C104.907 49.361 106.5 50.1695 106.5 50.5" stroke="black" stroke-width="4"/>
<path fill-rule="evenodd" clip-rule="evenodd" d="M159.5 111C182.972 111 202 91.9721 202 68.5C202 45.0279 182.972 26 159.5 26C136.028 26 117 45.0279 117 68.5C117 91.9721 136.028 111 159.5 111ZM167 68.7113C167 70.4219 166.495 72.0145 165.625 73.3479L171 79.2113C171 80.2113 170.5 82.1113 168.5 81.7113C167.335 80.5463 164.505 77.4018 163.121 75.8469C161.79 76.71 160.204 77.2113 158.5 77.2113C153.806 77.2113 150 73.4057 150 68.7113C150 64.6336 152.872 61.2265 156.703 60.4017L156.715 51.2358C157.52 50.3606 159.486 49.0998 160.914 51.0589C160.997 53.0256 160.944 58.0951 160.904 60.5561C164.428 61.5933 167 64.852 167 68.7113ZM163 68.7113C163 71.1967 160.985 73.2113 158.5 73.2113C156.015 73.2113 154 71.1967 154 68.7113C154 66.226 156.015 64.2113 158.5 64.2113C160.985 64.2113 163 66.226 163 68.7113ZM159 29C160.105 29 161 29.8954 161 31V38C161 39.1046 160.105 40 159 40C157.895 40 157 39.1046 157 38V31C157 29.8954 157.895 29 159 29ZM161 98C161 96.8954 160.105 96 159 96C157.895 96 157 96.8954 157 98V105C157 106.105 157.895 107 159 107C160.105 107 161 106.105 161 105V98ZM188 64C188 62.8954 188.895 62 190 62H197C198.105 62 199 62.8954 199 64C199 65.1046 198.105 66 197 66H190C188.895 66 188 65.1046 188 64ZM122 62C120.895 62 120 62.8954 120 64C120 65.1046 120.895 66 122 66H129C130.105 66 131 65.1046 131 64C131 62.8954 130.105 62 129 62H122Z" fill="#010101"/>
</svg>
