<svg xmlns="http://www.w3.org/2000/svg" version="1.1" xmlns:xlink="http://www.w3.org/1999/xlink" xmlns:svgjs="http://svgjs.com/svgjs" width="512" height="512" x="0" y="0" viewBox="0 0 682.667 682.667" style="enable-background:new 0 0 512 512" xml:space="preserve" class=""><g><defs><clipPath id="a" clipPathUnits="userSpaceOnUse"><path d="M0 512h512V0H0Z" fill="#000000" data-original="#000000"></path></clipPath></defs><g clip-path="url(#a)" transform="matrix(1.33333 0 0 -1.33333 0 682.667)"><path d="m0 0-67.178-67.178L-134.356 0c-17.192 17.192-27.826 40.944-27.826 67.179 0 52.468 42.535 95.004 95.004 95.004 52.47 0 95.004-42.536 95.004-95.004C27.826 40.944 17.192 17.192 0 0Z" style="stroke-width:30;stroke-linecap:butt;stroke-linejoin:miter;stroke-miterlimit:10;stroke-dasharray:none;stroke-opacity:1" transform="translate(177.182 334.817)" fill="none" stroke="#000000" stroke-width="30" stroke-linecap="butt" stroke-linejoin="miter" stroke-miterlimit="10" stroke-dasharray="none" stroke-opacity="" data-original="#000000" class=""></path><path d="M0 0c0 19.331 15.671 35.002 35.002 35.002 19.331 0 35.002-15.671 35.002-35.002 0-19.331-15.671-35.002-35.002-35.002C15.671-35.002 0-19.331 0 0Z" style="stroke-width:30;stroke-linecap:butt;stroke-linejoin:miter;stroke-miterlimit:10;stroke-dasharray:none;stroke-opacity:1" transform="translate(75.002 401.994)" fill="none" stroke="#000000" stroke-width="30" stroke-linecap="butt" stroke-linejoin="miter" stroke-miterlimit="10" stroke-dasharray="none" stroke-opacity="" data-original="#000000" class=""></path><path d="M0 0c-12.276 12.277-19.038 28.602-19.038 45.966 0 35.844 29.161 65.004 65.004 65.004s65.004-29.16 65.004-65.004c0-17.363-6.762-33.688-19.039-45.966L45.966-45.965Z" style="stroke-width:30;stroke-linecap:butt;stroke-linejoin:miter;stroke-miterlimit:10;stroke-dasharray:none;stroke-opacity:1" transform="translate(386.03 67.117)" fill="none" stroke="#000000" stroke-width="30" stroke-linecap="butt" stroke-linejoin="miter" stroke-miterlimit="10" stroke-dasharray="none" stroke-opacity="" data-original="#000000" class=""></path><path d="M0 0h58.202c24.729 0 44.776-20.047 44.776-44.776 0-24.73-20.047-44.777-44.776-44.777H2.538c-45.035 0-81.543-36.508-81.543-81.543v-.001c0-45.035 36.508-81.543 81.543-81.543h167.454" style="stroke-width:30;stroke-linecap:butt;stroke-linejoin:miter;stroke-miterlimit:10;stroke-dasharray:none;stroke-opacity:1" transform="translate(189.01 267.64)" fill="none" stroke="#000000" stroke-width="30" stroke-linecap="butt" stroke-linejoin="miter" stroke-miterlimit="10" stroke-dasharray="none" stroke-opacity="" data-original="#000000" class=""></path></g></g></svg>